<svg fill="none" height="24" viewBox="0 0 24 24" width="24" xmlns="http://www.w3.org/2000/svg"><path d="m12.22 16.44 1.13 1.14c.0306.029.0549.0639.0715.1025.0167.0387.0253.0804.0253.1225s-.0086.0838-.0253.1225c-.0166.0386-.0409.0735-.0715.1025l-.84.83c-.0171.0202-.0386.0361-.0629.0466-.0243.0104-.0507.015-.0771.0134h-.74c-.0255.0021-.0513-.0012-.0754-.0099-.0241-.0086-.0462-.0223-.0646-.0401l-.85-.87c-.0306-.029-.0549-.0639-.0715-.1025-.0167-.0387-.0252-.0804-.0252-.1225s.0085-.0838.0252-.1225c.0166-.0386.0409-.0735.0715-.1025l1.12-1.13c.0627-.0576.1448-.0896.23-.0896s.1673.032.23.0896zm0-4.66 1.13 1.14c.0306.029.0549.0639.0715.1025.0167.0387.0253.0804.0253.1225s-.0086.0838-.0253.1225c-.0166.0386-.0409.0735-.0715.1025l-3.18 3.17c-.0171.0202-.0386.0361-.0629.0466-.0243.0104-.0507.015-.0771.0134h-.72999c-.05136.0019-.10149-.016-.14-.05l-.85-.86c-.03056-.029-.05491-.0639-.07154-.1025-.01663-.0387-.02521-.0804-.02521-.1225s.00858-.0838.02521-.1225c.01663-.0386.04098-.0735.07154-.1025l3.45999-3.46c.0627-.0576.1448-.0896.23-.0896s.1673.032.23.0896zm0-4.65 1.13 1.13c.0309.02984.0554.06558.0721.10509.0168.03952.0254.08199.0254.12491s-.0086.0854-.0254.12491c-.0167.03951-.0412.07525-.0721.10509l-5.50999 5.5c-.01651.0208-.03796.0373-.0624.0477-.02445.0105-.05112.0147-.0776.0123h-.7c-.04514.0169-.09486.0169-.14 0l-.86-.91c-.03056-.029-.05491-.0639-.07154-.1025-.01663-.0387-.02521-.0804-.02521-.1225s.00858-.0838.02521-.1225c.01663-.0386.04098-.0735.07154-.1025l5.78999-5.79c.0615-.05214.1394-.08077.22-.08077s.1586.02863.22.08077zm1.42-3.29c-.4384-.43601-1.0317-.68075-1.65-.68075s-1.2115.24474-1.65.68075l-7.65999 7.66c-.21679.2156-.38882.4719-.50621.7542-.1174.2823-.17783.5851-.17783.8908s.06043.6085.17783.8908c.11739.2823.28942.5386.50621.7542l5.53 5.53c.34366.3007.77486.483 1.23.52h5.07999c.475-.0443.9251-.2327 1.29-.54l5.51-5.51c.2168-.2156.3888-.4719.5062-.7542s.1778-.5851.1778-.8908-.0604-.6085-.1778-.8908-.2894-.5386-.5062-.7542l-7.67-7.66z" fill="#fff"/></svg>