<svg fill="none" height="24" viewBox="0 0 24 24" width="24" xmlns="http://www.w3.org/2000/svg"><path d="m13.86 12.53c-.3206-.3418-.7057-.6167-1.133-.809-.4274-.1922-.8886-.2979-1.357-.311.7891-.1629 1.5106-.5602 2.07-1.14.4509-.5664.6817-1.27674.65-2 .0102-.62464-.1413-1.24129-.44-1.79-.3026-.51612-.7421-.93839-1.27-1.22-.5385-.29069-1.1242-.48367-1.73-.57-1.1742-.14493-2.35703-.20841-3.54-.19h-4.11v15h4.24c1.22912.0283 2.45872-.0285 3.68-.17.6549-.0917 1.2901-.2911 1.88-.59.6171-.3094 1.1235-.8018 1.45-1.41.351-.6505.5268-1.3811.51-2.12.0507-.9751-.271-1.9331-.9-2.68zm-7.06-4.71h.88c.68466-.05686 1.37259.06009 2 .34.18189.13671.3254.31813.4165.52663s.1267.43702.1035.66337c.0211.22461-.02.45069-.1188.6535-.09872.2028-.25137.3746-.4412.4965-.65399.2729-1.36358.386-2.07.33h-.77v-3zm3.48 8.6c-.62751.2807-1.31399.4043-2 .36h-1.48v-3.27h1.49c.68861-.0536 1.37904.0776 2 .38.1943.1569.3464.3597.4424.5902.0961.2305.133.4814.1076.7298.0303.2384-.0105.4803-.1173.6956-.1067.2153-.2747.3942-.4827.5144zm10.72 1.18c0 .3758-.1114.7431-.3202 1.0556-.2088.3124-.5055.556-.8527.6998s-.7292.1814-1.0978.1081c-.3685-.0733-.7071-.2543-.9728-.52s-.4467-.6043-.52-.9728c-.0733-.3686-.0357-.7506.1081-1.0978s.3874-.6439.6998-.8527c.3125-.2088.6798-.3202 1.0556-.3202.5039 0 .9872.2002 1.3435.5565s.5565.8396.5565 1.3435zm-3.55-13.1h3.3v10h-3.3z" fill="#fff"/></svg>