<svg fill="none" height="24" viewBox="0 0 24 24" width="24" xmlns="http://www.w3.org/2000/svg"><path d="m12 2c-2.32454.00824-4.57357.82602-6.36048 2.31277-1.7869 1.48675-3.00004 3.54957-3.43086 5.83383-.43081 2.2843-.05239 4.6473 1.07022 6.6827 1.12261 2.0355 2.91927 3.6163 5.0811 4.4707-.13998-.9515-.13998-1.9185 0-2.87.18-.78 1.17-5 1.17-5-.18139-.4545-.2698-.9407-.26-1.43 0-1.39.80002-2.42 1.81002-2.42.1658-.00399.3308.02507.4852.08548.1545.0604.2954.15095.4146.26636.1191.11536.2141.25336.2793.40586.0653.1525.0996.3164.1009.4823.0049.0599.0049.1201 0 .18-.1795 1.133-.4606 2.2475-.84 3.33-.0412.1878-.0448.3819-.0107.5711.034.1893.1051.3699.2092.5316s.239.3012.3972.4106c.1581.1093.3363.1864.5243.2267.1228.0153.2471.0153.37 0 1.78 0 3.14-1.87 3.14-4.57.0323-1.0434-.3507-2.057-1.0651-2.81822-.7143-.76122-1.7016-1.20784-2.7449-1.24178h-.34c-.5675-.03102-1.1355.05024-1.6716.23913-.53602.1889-1.02951.4817-1.45218.86164-.42268.37995-.76623.83956-1.01097 1.35251-.24474.51292-.38586 1.06912-.41527 1.63672-.00498.0799-.00498.1601 0 .24-.00017.8191.25887 1.6172.74 2.28.0334.0395.05639.0867.06687.1374.01048.0506.00812.1031-.00687.1526-.07.31-.24 1-.28 1.13-.00668.0347-.02203.0672-.04463.0945-.02259.0272-.0517.0483-.08462.0612-.03292.013-.06859.0175-.10368.0129-.0351-.0045-.06849-.0177-.09707-.0386-1.26-.58-2-2.4-2-3.87 0-3.15 2.29-6 6.62002-6 .7698-.04042 1.5399.07143 2.2664.32914.7265.25772 1.395.65623 1.9672 1.17272.5723.51648 1.0369 1.14079 1.3675 1.83715.3306.69637.5205 1.45109.5589 2.22099.005.0699.005.1401 0 .21 0 3.45-2.18 6.22-5.19 6.22-.4475.0157-.8918-.0814-1.292-.2823-.4002-.201-.7434-.4994-.998-.8677 0 0-.51 1.9-.63 2.37-.31647.9284-.75714 1.8098-1.31002 2.62.97335.2915 1.98392.4397 3.00002.44 2.6521 0 5.1957-1.0536 7.071-2.9289 1.8754-1.8754 2.929-4.4189 2.929-7.0711 0-2.65216-1.0536-5.1957-2.929-7.07107-1.8753-1.87536-4.4189-2.92893-7.071-2.92893z" fill="#fff"/></svg>