<svg fill="none" height="24" viewBox="0 0 24 24" width="24" xmlns="http://www.w3.org/2000/svg"><path d="m4.57002 3.9c-.21331-.01068-.42644.02432-.62512.10266-.19869.07833-.37836.19819-.527.35156-.14863.15336-.2628.3367-.33487.53775-.07206.20104-.10037.41516-.08301.62803v6c0 4.85 4.82 8.65 8.99998 8.62 4.69 0 9-4 9-8.62v-6c.0132-.21617-.0197-.43266-.0965-.63516s-.1957-.3864-.3488-.53953c-.1531-.15314-.337-.27202-.5395-.34878-.2025-.07677-.419-.10967-.6352-.09653zm3.8 4.85 3.62998 3.43 3.6-3.43c1.62-.68 2.33 1.17 1.66 1.71l-4.71 4.54c-.3636.1402-.7664.1402-1.13 0l-4.70998-4.5c-.64-.64.19-2.5 1.66-1.75z" fill="#fff"/></svg>