<svg height="240" viewBox="0 0 960 240" width="960" xmlns="http://www.w3.org/2000/svg"><path d="m952 222.91-101.13-215.73a12 12 0 0 0 -21.74 0l-101.13 215.73a12 12 0 0 0 10.88 17.09h202.24a12 12 0 0 0 10.88-17.09z"/><path d="m19.15 0a12 12 0 0 0 -10.8 17.23l100.85 208.22a12 12 0 0 0 21.6 0l19.83-40.94a12 12 0 0 1 19.55-3l49.07 52.33a12 12 0 0 0 20.75-8.19v-225.65z"/><path d="m672.71 118.41a11.9 11.9 0 0 1 -4.12-18.41 42.67 42.67 0 0 0 4.08-5.91c4.7-8.41 7.17-18.86 7.17-31.59 0-41.59-22.17-62.5-66.5-62.5h-79.34a12 12 0 0 0 -12 12v216a12 12 0 0 0 12 12h86.51q44.65 0 66.49-24.55c10.07-11.13 15-25.68 15-43.63 0-13.87-3.13-25.91-9.4-36.37q-6.3-10.65-19.89-17.04z"/><path d="m458 0h-156a12 12 0 0 0 -12 12v216a12 12 0 0 0 12 12h156a12 12 0 0 0 12-12v-36a12 12 0 0 0 -12-12h-36a12 12 0 0 1 -12-12v-6a12 12 0 0 1 12-12h16a12 12 0 0 0 12-12v-36a12 12 0 0 0 -12-12h-16a12 12 0 0 1 -12-12v-6a12 12 0 0 1 12-12h36a12 12 0 0 0 12-12v-36a12 12 0 0 0 -12-12z"/></svg>