<svg fill="none" height="60" viewBox="0 0 243 60" width="243" xmlns="http://www.w3.org/2000/svg" xmlns:xlink="http://www.w3.org/1999/xlink"><clipPath id="a"><path d="m0 0h243v60h-243z"/></clipPath><g clip-path="url(#a)"><path d="m140.97 15.87c11.025 0 19.345 8.06 19.345 18.695s-8.32 18.7-19.345 18.7-19.34-8.06-19.34-18.7 8.32-18.695 19.34-18.695zm84.32.17c11.92 0 17.37 9.265 17.37 19.385.013.6674-.011 1.3351-.07 2 .003.1637-.056.3224-.166.444-.109.1217-.261.1971-.424.211h-24.345c1 4.395 3.86 7.035 8.75 7.035 2.955 0 5.38-.755 8.275-3.22.113-.1184.267-.1895.43-.1988.164-.0092.324.0439.45.1488l.065.05 4.715 4.245c.081.0529.149.1234.198.2062.05.0828.08.1758.089.272s-.005.1931-.039.2835-.088.1718-.158.2383c-3.54 4.05-8.15 6.13-14.155 6.13-10.81 0-18.655-7.59-18.655-18.655 0-10.17 7.245-18.575 17.67-18.575zm-39.545-8.5c.092-.00846.185.00345.272.03489.087.03143.166.08162.231.14699.065.06538.116.14435.147.2313.032.08695.043.17975.035.27182v8.5h7.72c.093-.0086.186.0034.273.0351.088.0318.167.0824.232.1484.066.0659.116.1455.147.2331s.042.1809.033.2734v7.205c.008.0921-.003.1849-.035.2718-.031.087-.082.1659-.147.2313s-.144.1156-.231.147c-.087.0315-.18.0434-.272.0349h-7.72v15.565c0 2.36 1.055 3.5 3.13 3.5 1.498.0761 2.991-.2338 4.335-.9.47-.235.815-.085.815.385v6.735c.007.1725-.033.3437-.117.4946s-.208.2756-.358.3604c-1.865 1.16-4.33 1.845-7.545 1.845-5.555 0-9.5-2-10.275-8.34-.083-.9242-.118-1.8521-.105-2.78v-16.865h-3.6c-.094.0115-.189.0019-.279-.028-.089-.03-.171-.0796-.239-.1453-.068-.0656-.121-.1456-.154-.2342-.033-.0885-.046-.1833-.038-.2775v-7.205c-.008-.0927.004-.1862.035-.2737.032-.0876.083-.1671.148-.2329.066-.0659.146-.1164.233-.1481.088-.0317.181-.0437.274-.0353h3.6v-8.5c-.008-.09361.006-.18771.04-.27542.033-.08772.086-.16682.154-.23153.068-.0647.15-.11338.239-.14245.089-.02908.184-.03782.277-.0256zm-89.245 8.33c6.45 0 10.61 3.625 11.77 9.69.237 1.3668.344 2.753.32 4.14v22.025c.008.0921-.003.1849-.035.2718-.031.087-.082.1659-.147.2313s-.144.1156-.231.147c-.087.0315-.18.0434-.272.0349h-8.75c-.0921.0085-.1849-.0034-.2718-.0349-.087-.0314-.1659-.0816-.2313-.147s-.1156-.1443-.147-.2313c-.0315-.0869-.0434-.1797-.0349-.2718v-19.39c0-4.76-2.275-7.29-6.135-7.29s-6.305 2.5-6.305 7.29v19.39c.0085.0921-.0035.1849-.0349.2718-.0314.087-.0816.1659-.147.2313s-.1443.1156-.2313.147c-.0869.0315-.1797.0434-.2718.0349h-8.75c-.0919.0076-.1843-.005-.2708-.0367-.0866-.0317-.1652-.082-.2304-.1471-.0651-.0652-.1153-.1438-.1471-.2304-.0317-.0865-.0443-.1789-.0367-.2708v-34.31c-.0083-.0923.0036-.1852.035-.2724s.0815-.1664.1468-.2322c.0652-.0657.1441-.1164.231-.1484.087-.032.1799-.0447.2722-.037h8.75c.0925-.0086.1858.0034.2732.0351.0873.0318.1665.0824.232.1484.0655.0659.1156.1455.1466.2331.0311.0876.0424.1809.0332.2734v4.085c3.37-4.5 7.295-5.63 10.47-5.63zm44.47 8.745c-5.745 0-9.35 4.635-9.35 9.95s3.605 9.935 9.35 9.935 9.35-4.635 9.35-9.955-3.6-9.93-9.35-9.93zm84.32-.47c-4.035 0-6.655 2.745-7.8 7.415l-.05.22h15.375c-.71-4.46-3.15-7.635-7.525-7.635zm-202.475 2.275h-7.075c-.5213.0318-1.0441-.0275-1.545-.175-.5995-.2045-1.12-.5914-1.4885-1.1065-.3686-.5151-.5667-1.1326-.5667-1.766s.1981-1.2509.5667-1.766c.3685-.5151.889-.902 1.4885-1.1065.5012-.1458 1.024-.2034 1.545-.17h4.59v-4.59c-.0334-.521.0241-1.0438.17-1.545.2045-.5995.5914-1.1199 1.1065-1.4885s1.1326-.5667 1.766-.5667 1.2509.1981 1.766.5667.902.889 1.1065 1.4885c.1475.5009.2068 1.0238.175 1.545v7.075c.0156.4168-.0129.8342-.085 1.245-.1398.5487-.4248 1.0495-.8251 1.4499-.4004.4003-.9012.6853-1.4499.8251-.4108.0721-.8282.1006-1.245.085zm22.73 26h-37.955v-33.42c-.0032-.2035.03504-.4055.1124-.5938.07737-.1882.19223-.3588.3376-.5012l9.845-9.865c.1424-.14537.313-.26023.5012-.33759.1883-.07737.3903-.11561.5938-.11241h26.565zm-43.7-39.06c-1.017092.9793-1.656241 2.2859-1.805 3.69-.04.235-.04.575-.04.92v37.805c-.00397173.3155.0093817.631.04.945.118858.8166.498589 1.5728 1.08252 2.1558.58393.583 1.34074.9616 2.15748 1.0792.31367.0357.62935.0508.945.045h44.69c.314.0058.628-.0092.94-.045.8171-.1168 1.5743-.4951 2.1584-1.0783.584-.5832.9635-1.3398 1.0816-2.1567.0306-.314.044-.6295.04-.945v-51.55c.004-.31549-.0094-.63097-.04-.945-.1181-.81687-.4976-1.57352-1.0816-2.15669-.5841-.583169-1.3413-.961481-2.1584-1.078307-.312-.03580123-.626-.05083434-.94-.04500002h-30.945c-.345 0-.685 0-.92.04500002-1.4047.142767-2.7128.780842-3.69 1.799997z" fill="#fff"/></g></svg>