<svg fill="none" height="60" viewBox="0 0 181 60" width="181" xmlns="http://www.w3.org/2000/svg" xmlns:xlink="http://www.w3.org/1999/xlink"><clipPath id="a"><path d="m0 0h181v60h-181z"/></clipPath><g clip-path="url(#a)" fill="#fff"><path d="m70.8858 16.75c2.8771 0 5.2094-2.3259 5.2094-5.195 0-2.86913-2.3323-5.19501-5.2094-5.19501-2.877 0-5.2094 2.32588-5.2094 5.19501 0 2.8691 2.3324 5.195 5.2094 5.195z"/><path d="m120.723 3.89001h-8.558v11.15999h-5.761v8h5.761v16.1c0 3.1467.401 5.7233 1.203 7.73.677 1.8254 1.799 3.4543 3.264 4.74 1.403 1.167 3.065 1.983 4.849 2.38 1.71.4416 3.472.6584 5.239.645h6.433v-7.615h-5.556c-.896.0065-1.789-.1147-2.652-.36-.822-.2366-1.575-.667-2.196-1.255-.689-.6823-1.205-1.5188-1.504-2.44-.406-1.259-.595-2.5779-.557-3.9v-16.03h12.565v-8h-12.535z"/><path d="m54.305 28.6c.0206-3.5264-.7162-7.0163-2.161-10.235-1.375-3.1143-3.3474-5.9305-5.806-8.29-2.4988-2.39056-5.4327-4.28284-8.6439-5.57501-3.3548-1.34847-6.9422-2.02796-10.5591-2-3.6272-.03306-7.2254.64654-10.5893 2-3.198 1.29447-6.1184 3.18678-8.60376 5.57501-2.45197 2.3641-4.42187 5.1793-5.80102 8.29-1.437827 3.2202-2.1678165 6.7101-2.14091802 10.235-.02492638 3.5151.70507102 6.9947 2.14091802 10.205 1.38262 3.1147 3.35193 5.9357 5.80102 8.31 5.15906 4.9353 12.04416 7.6706 19.19306 7.625 2.5191.0096 5.0281-.3167 7.4606-.97 2.3445-.6391 4.5936-1.5857 6.6884-2.815l5.2245 5.255c.3997.428.8816.7714 1.4172 1.0098.5355.2384 1.1137.3669 1.7001.3779.5863.011 1.1689-.0958 1.7131-.314.5441-.2182 1.0387-.5433 1.4542-.956s.7436-.9046.9645-1.4463c.221-.5418.3305-1.1223.3218-1.7071-.0086-.5848-.1351-1.1619-.372-1.6969s-.5793-1.0171-1.0068-1.4174l-4.703-4.695c1.9752-2.2784 3.5469-4.8755 4.6478-7.68 1.1219-2.8971 1.685-5.9795 1.6596-9.085zm-10.5842 7.225c-.8901 2.1541-2.191 4.1153-3.8306 5.775-1.6723 1.6721-3.661 2.9963-5.8506 3.8958s-4.5366 1.3564-6.9046 1.3442c-2.4013.0151-4.7802-.4614-6.9893-1.4-2.1294-.9014-4.0635-2.2054-5.6958-3.84-2.5377-2.6243-4.2534-5.9292-4.93729-9.5105-.68388-3.5814-.30626-7.2838 1.08669-10.6545.9009-2.1591 2.208-4.1261 3.8506-5.795 1.6349-1.6314 3.5684-2.935 5.6958-3.84 2.2095-.9369 4.5883-1.4117 6.9893-1.395 2.4105-.0152 4.7988.4595 7.0193 1.395 2.147.8996 4.0941 2.2141 5.7291 3.8678 1.635 1.6536 2.9256 3.6137 3.7973 5.7672.9612 2.2807 1.4523 4.731 1.4439 7.205.0221 2.4648-.4554 4.9087-1.4038 7.185z"/><path d="m173.61 17.32-.502 4c-.751-.7193-1.561-1.3749-2.421-1.96-.945-.6426-1.953-1.1871-3.009-1.625-1.119-.4668-2.279-.8316-3.464-1.09-1.291-.2809-2.61-.4184-3.931-.41-2.733-.0415-5.447.4688-7.977 1.5-2.309.9529-4.402 2.3572-6.157 4.13-1.716 1.7593-3.058 3.846-3.946 6.135-.942 2.3882-1.417 4.9339-1.399 7.5-.018 2.568.464 5.1152 1.419 7.5.903 2.2803 2.249 4.3602 3.961 6.12 1.744 1.775 3.835 3.1753 6.142 4.115 2.52 1.0243 5.22 1.5343 7.942 1.5 1.314.0057 2.625-.1301 3.911-.405 1.187-.2586 2.349-.6252 3.469-1.095 1.051-.442 2.058-.981 3.008-1.61.885-.5816 1.714-1.2427 2.477-1.975l.502 4h7.36v-36.33zm-1.77 22.955c-.584 1.3991-1.435 2.6712-2.507 3.745-1.059 1.0484-2.317 1.8761-3.7 2.435-2.923 1.1469-6.173 1.1469-9.096 0-1.402-.5626-2.676-1.4011-3.745-2.4655-1.07-1.0644-1.914-2.3328-2.482-3.7295-1.219-3.0725-1.219-6.4925 0-9.565.574-1.3809 1.414-2.6362 2.472-3.695 1.057-1.0516 2.315-1.8798 3.7-2.435 1.451-.5852 3.003-.8791 4.568-.865 3.087-.0301 6.062 1.1558 8.278 3.3 1.078 1.0606 1.931 2.3276 2.507 3.725.627 1.5029.941 3.1173.922 4.745.023 1.6471-.289 3.2817-.917 4.805z"/><path d="m75.0824 22.565h-8.3932v31.11h8.3932z"/><path d="m95.9751 22.565h-8.3932v31.11h8.3932z"/><path d="m96.5919 13.5419c1.101-2.6507-.1612-5.68965-2.8193-6.78761-2.6581-1.09797-5.7054.16079-6.8064 2.81151-1.101 2.6507.1613 5.6896 2.8193 6.7876 2.6581 1.098 5.7054-.1608 6.8064-2.8115z"/></g></svg>