<svg fill="none" height="24" viewBox="0 0 24 24" width="24" xmlns="http://www.w3.org/2000/svg"><path clip-rule="evenodd" d="m12 2c-1.9778 0-3.91121.58649-5.5557 1.6853-1.64449 1.09882-2.92621 2.6606-3.68309 4.48787-.75688 1.82723-.95491 3.83793-.56906 5.77773s1.33826 3.7216 2.73679 5.1202c1.39852 1.3985 3.18035 2.3509 5.12016 2.7368 1.9398.3858 3.9505.1878 5.7777-.5691 1.8273-.7569 3.3891-2.0386 4.4879-3.6831s1.6853-3.5779 1.6853-5.5557c0-1.3132-.2587-2.61358-.7612-3.82683-.5025-1.21326-1.2391-2.31565-2.1677-3.24424-.9286-.92858-2.031-1.66518-3.2443-2.16773-1.2132-.50254-2.5136-.7612-3.8268-.7612zm6.61 4.61c1.2497 1.49075 1.9332 3.37473 1.93 5.32-1.9524-.3812-3.9497-.4789-5.93-.29-.07-.14-.11-.28-.18-.43-.18-.39-.36-.82-.57-1.25 1.8495-.6813 3.4875-1.83652 4.75-3.35zm-6.61-3.15c2.0925-.00165 4.1131.76319 5.68 2.15-1.1636 1.43206-2.7157 2.49801-4.47 3.07-.9586-1.72685-2.0171-3.39635-3.17-5 .6427-.14826 1.3004-.22207 1.96-.22zm-3.64.83c1.14 1.58667 2.2 3.22667 3.18 4.92-2.57926.67223-5.23458 1.0083-7.9 1 .2765-1.28411.8465-2.48678 1.66537-3.51383s1.86437-1.85061 3.05463-2.40617zm-4.9 7.71v-.25c2.97209.0085 5.93076-.3988 8.79-1.21.25.46.46 1 .68 1.46l-.32.11c-2.88083 1.0431-5.32351 3.0311-6.93 5.64-1.43842-1.5683-2.23135-3.622-2.22-5.75zm8.54 8.54c-1.9014.0103-3.75088-.6203-5.25-1.79 1.48176-2.5595 3.88-4.461 6.71-5.32.8201 2.0909 1.4297 4.2582 1.82 6.47-1.0378.4362-2.1543.6541-3.28.64zm4.75-1.47c-.3819-2.0643-.9304-4.0942-1.64-6.07 1.7789-.2563 3.5919-.1336 5.32.36-.1844 1.1548-.6067 2.2586-1.2402 3.2416-.6335.9829-1.4643 1.8235-2.4398 2.4684z" fill="#fff" fill-rule="evenodd"/></svg>