<svg fill="none" height="24" viewBox="0 0 24 24" width="24" xmlns="http://www.w3.org/2000/svg"><path d="m15.21 21.48c1.8742-.6318 3.519-1.8053 4.7263-3.3719 1.2074-1.5667 1.923-3.4562 2.0564-5.4295.1335-1.9734-.3213-3.94204-1.3068-5.65695-.9854-1.71491-2.4573-3.09908-4.2294-3.97746-1.7721-.87837-3.765-1.21151-5.7264-.95726-1.96151.25424-3.80353 1.08444-5.29316 2.38561-1.48963 1.30116-2.55995 3.01484-3.07561 4.92432-.51565 1.90944-.45348 3.92904.17866 5.80314.45593 1.3501 1.19881 2.5855 2.17758 3.6213.97877 1.0357 2.17021 1.8472 3.49242 2.3787h.11c.68-.2 1.61-.75 1.61-1.65v-1.46c-2.25.53-2.72-.93-2.72-.93-.1364-.4754-.43776-.8867-.85-1.16-.72-.47.07-.47.07-.47.26133.0184.51431.0998.73725.2374.22293.1376.40917.3272.54275.5526.2262.3806.58754.662 1.01197.788s.88077.0875 1.27803-.108c.05141-.409.23791-.7891.53001-1.08-1.78001-.21-3.68001-.92-3.68001-4-.03139-.7929.25267-1.566.79-2.15-.12982-.34374-.19047-.70974-.17846-1.07698s.09645-.7285.24846-1.06302c0 0 .68-.25 2.21.79.64831-.19293 1.32411-.2774 2.00001-.25.6749-.00691 1.3476.07718 2 .25 1.54-1 2.22-.79 2.22-.79.2757.70411.3246 1.47674.14 2.21.5372.5907.8334 1.3615.83 2.16 0 3.14-1.86 3.78-3.68 4 .1885.182.3366.4015.4348.6444s.1443.5038.1352.7656v2.21c.0306.3914.1617.7683.3807 1.0942.219.3258.5184.5896.8693.7658z" fill="#fff"/></svg>