<svg fill="none" height="24" viewBox="0 0 24 24" width="24" xmlns="http://www.w3.org/2000/svg"><path d="m22 10.59c0-4.48-4.49-8.12-10-8.12s-10 3.64-10 8.12c0 4 3.56 7.37 8.36 8 .33.07.77.22.88.5.0647.2965.0647.6035 0 .9 0 0-.12.71-.15.86s-.2 1 .87.54c2.8983-1.5287 5.5484-3.4876 7.86-5.81 1.351-1.3144 2.1335-3.1057 2.18-4.99zm-13.53 2.41c-.00242.0496-.02322.0965-.05834.1317-.03512.0351-.08205.0559-.13166.0583h-2.81c-.04776-.0014-.09362-.019-.13-.05-.01529-.042-.01529-.088 0-.13v-4.39c0-.05304.02107-.10391.05858-.14142s.08838-.05858.14142-.05858h.7c.05129.00257.09963.02477.135.062s.05506.08665.055.138v3.46h1.85c.04961.0024.09654.0232.13166.0583.03512.0352.05592.0821.05834.1317zm1.69 0c0 .0504-.02.0987-.0556.1344-.0357.0356-.084.0556-.1344.0556h-.7c-.05135.0001-.10077-.0196-.138-.055s-.05943-.0837-.062-.135v-4.38c0-.05304.02107-.10391.05858-.14142s.08838-.05858.14142-.05858h.73c.0258-.00003.0514.00519.0751.01536s.0451.02506.0629.04378c.0178.01871.0316.04086.0405.06508.0089.02421.0129.05.0115.07578zm4.84 0c-.0024.0496-.0232.0965-.0583.1317-.0352.0351-.0821.0559-.1317.0583h-.81v-.05l-2-2.7v2.56c-.0026.0513-.0248.0996-.062.135s-.0866.0551-.138.055h-.8c-.0514.0001-.1008-.0196-.138-.055s-.0594-.0837-.062-.135v-4.38c0-.05304.0211-.10391.0586-.14142s.0884-.05858.1414-.05858h.85l2 2.7v-2.5c-.0001-.05135.0196-.10077.055-.138s.0837-.05943.135-.062h.71c.0513.00257.0996.02477.135.062s.0551.08665.055.138zm3.87-3.66c.0014.02578-.0026.05157-.0115.07579-.0089.02421-.0227.04636-.0405.06507-.0178.01872-.0392.03362-.0629.04378-.0237.01017-.0493.0154-.0751.01536h-1.92v.73h1.91c.0258 0 .0514.0052.0751.0154.0237.0101.0451.025.0629.0437.0178.0188.0316.0409.0405.0651s.0129.05.0115.0758v.7c.0015.0253-.0025.0507-.0115.0744s-.023.0452-.0409.0632c-.018.0179-.0395.0319-.0632.0409s-.0491.013-.0744.0115h-1.91v.74h1.91c.0504 0 .0987.02.1343.0557.0357.0356.0557.0839.0557.1343v.71c0 .0504-.02.0987-.0557.1344-.0356.0356-.0839.0556-.1343.0556h-2.8c-.0508-.0014-.0998-.0189-.14-.05-.0194-.0155-.0349-.0353-.0454-.0579-.0104-.0226-.0154-.0473-.0146-.0721v-4.39c-.0008-.02484.0042-.04952.0146-.07208.0105-.02257.026-.0424.0454-.05792.038-.03603.0877-.05731.14-.06h2.8c.0258-.00003.0514.00519.0751.01536s.0451.02506.0629.04378c.0178.01871.0316.04086.0405.06508s.0129.05.0115.07578z" fill="#fff"/></svg>