<svg fill="none" height="24" viewBox="0 0 24 24" width="24" xmlns="http://www.w3.org/2000/svg"><path d="m6.32997 18.72h11.36003v-13.44h-8.21003c-.08121.00939-.15604.04859-.21.11-1 1-1.92 2.09-2.87 3.13-.05905.07372-.09084.16556-.09.26zm12.48003-15.72c.151-.00534.3016.01914.4432.07204.1416.05291.2713.1332.3819.23629.1105.10309.1996.22696.2622.36452.0626.13755.0975.2861.1027.43715v15.75c0 .3023-.1201.5923-.3339.8061s-.5038.3339-.8061.3339h-13.67003c-.30154-.0026-.58999-.1236-.80321-.3368-.21323-.2132-.33418-.5017-.33679-.8032v-11.5c-.00885-.21092.02663-.42135.10414-.61771s.19533-.37428.34586-.52229l3.42-3.74c.13278-.15554.2987-.27939.48558-.36245s.38999-.12322.59442-.11755zm-10.22003 7.92c-.24075-.0253-.46185-.1444-.61534-.3316-.1535-.1872-.22703-.4274-.20466-.6684.0236-.20935.11757-.40449.26654-.55346s.34411-.24294.55346-.26654h1.54003v-1.57c0-.244.0969-.478.2694-.65054.1726-.17253.4066-.26946.6506-.26946s.478.09693.6505.26946c.1725.17254.2695.40654.2695.65054v2.47c-.0052.2415-.1041.4714-.2758.6412-.1717.1699-.4027.2663-.6442.2688h-2.46003z" fill="#fff"/></svg>