<svg fill="none" height="24" viewBox="0 0 24 24" width="24" xmlns="http://www.w3.org/2000/svg"><title id="title">Twitter</title><path d="m8.3 20.13c1.52335.0132 3.0344-.2738 4.4468-.8446s2.6986-1.4142 3.7851-2.4821c1.0864-1.0679 1.9519-2.3393 2.5469-3.7417.5951-1.4024.9081-2.9082.9212-4.4316v-.7c.7901-.58306 1.4678-1.30477 2-2.13-.7533.32951-1.5525.54196-2.37.63.8606-.50276 1.5025-1.30872 1.8-2.26-.8069.47161-1.685.80933-2.6 1-.3692-.39801-.8139-.71855-1.3083-.94291-.4943-.22436-1.0284-.34806-1.5711-.36388-.5426-.01582-1.083.07655-1.5896.27172s-.9692.48924-1.361.86507c-.524.49454-.9101 1.11697-1.1205 1.80606-.2105.68908-.2378 1.42107-.0795 2.12394-1.6259-.09056-3.21439-.52301-4.66181-1.26911-1.44741-.74611-2.7212-1.78911-3.73819-3.06089-.52818.90618-.69086 1.97968-.45488 3.00166.23599 1.02198.85287 1.91548 1.72488 2.49834-.65208-.03-1.28997-.20055-1.87-.5v.07c.00489.9449.33599 1.8591.93731 2.588.60133.7288 1.43595 1.2276 2.36269 1.412-.60903.1709-1.2499.1949-1.87.07.25972.8189.77012 1.5356 1.45915 2.0488.68902.5131 1.52184.7969 2.38085.8112-1.45197 1.1219-3.23511 1.7303-5.07 1.73-.33446.0099-.66913-.0102-1-.06 1.87302 1.2225 4.06333 1.8692 6.3 1.86" fill="#fff"/></svg>
