<svg fill="none" height="24" viewBox="0 0 24 24" width="24" xmlns="http://www.w3.org/2000/svg"><path d="m12.65 3c-1.2921-.09724-2.59.08568-3.80491.53625s-2.31819 1.15817-3.23444 2.07441c-.91625.91625-1.62384 2.01954-2.07441 3.23444s-.63349 2.5128-.53625 3.8049c.20677 2.3063 1.27842 4.4491 2.99977 5.9979 1.72135 1.5489 3.96493 2.3891 6.28024 2.3521h3.32c.2387 0 .4676-.0948.6364-.2636s.2636-.3977.2636-.6364-.0948-.4676-.2636-.6364-.3977-.2636-.6364-.2636h-3.3c-1.6453.0267-3.25329-.4913-4.5736-1.4733-1.32031-.9821-2.27886-2.3732-2.72641-3.9567-.30274-1.2106-.28698-2.479.04574-3.6817.33273-1.20272.97108-2.29885 1.85298-3.18175.88189-.8829 1.97729-1.52251 3.17959-1.8566 1.2024-.3341 2.4707-.35131 3.6817-.04995 1.588.44112 2.9842 1.3977 3.969 2.71922s1.5023 2.93298 1.471 4.58078v1c-.0091.3609-.1525.7054-.4022.9662s-.5876.419-.9478.4438c-.3602-.0248-.6982-.183-.9478-.4438-.2497-.2608-.3931-.6053-.4022-.9662v-1.14c.0158-1.0988-.3614-2.16708-1.0636-3.01233-.7023-.84525-1.6833-1.41185-2.7664-1.59767-.7622-.11572-1.5413-.03414-2.263.23696-.72165.2711-1.36179.72266-1.85927 1.31158-.49748.58891-.83569 1.29556-.98236 2.05236-.14666.7568-.09688 1.5386.14461 2.2707.24148.7321.6666 1.3901 1.23476 1.9112.56817.521 1.26046.8878 2.01066 1.0651.7502.1774 1.5334.1595 2.2747-.052.7414-.2115 1.4161-.6094 1.9599-1.1559.4381.5786 1.0533.9982 1.7519 1.195.6986.1967 1.4424.1599 2.1181-.105.5842-.2516 1.0805-.671 1.4259-1.2052.3454-.5341.5243-1.1588.5141-1.7948v-1c.037-2.31529-.8033-4.55888-2.3521-6.28023s-3.6916-2.793-5.9979-2.99977zm-.65 11.7c-.534 0-1.056-.1583-1.5001-.455-.444-.2967-.79003-.7184-.99439-1.2118-.20435-.4933-.25782-1.0362-.15364-1.5599.10418-.5238.36133-1.0049.73893-1.3825.3776-.37759.8587-.63474 1.3824-.73892.5238-.10418 1.0667-.05071 1.56.15365.4934.20435.9151.55037 1.2118.99447.2966.444.455.966.455 1.5 0 .7161-.2845 1.4028-.7908 1.9092-.5064.5063-1.1931.7908-1.9092.7908z" fill="#fff"/></svg>