<svg fill="none" height="24" viewBox="0 0 24 24" width="24" xmlns="http://www.w3.org/2000/svg"><path d="m2.99999 17.46v3c0 .1326.05268.2598.14645.3536.09377.0937.22094.1464.35355.1464h3c.06558.0008.13059-.0121.19087-.038.06028-.0258.11448-.064.15913-.112l10.96001-10.87-3.75-3.75-10.91001 10.91c-.04831.0465-.08656.1025-.11236.1644-.0258.062-.03861.1285-.03764.1956zm17.71001-10.46c.1862-.18736.2908-.44081.2908-.705s-.1046-.51764-.2908-.705l-2.34-2.3c-.1874-.18625-.4408-.29079-.705-.29079s-.5176.10454-.705.29079l-1.83 1.83 3.75 3.75z" fill="#fff"/></svg>