<svg fill="none" height="24" viewBox="0 0 24 24" width="24" xmlns="http://www.w3.org/2000/svg"><path d="m15.88 9.29-3.88 3.88-3.87998-3.88c-.08965-.10468-.19997-.1897-.32403-.24973-.12407-.06002-.2592-.09375-.39692-.09907s-.27505.01789-.40338.06816c-.12832.05028-.24487.12653-.34232.22399-.09746.09745-.17372.214-.22399.34233-.05028.12832-.07348.26565-.06816.40337.00532.13775.03905.27285.09907.39695.06002.124.14505.2344.24973.324l4.58998 4.59c.1874.1863.4408.2908.705.2908s.5177-.1045.705-.2908l4.59-4.59c.1863-.1874.2908-.4408.2908-.705 0-.26419-.1045-.51764-.2908-.705-.0929-.09373-.2035-.16812-.3254-.21889s-.2526-.07691-.3846-.07691-.2627.02614-.3846.07691c-.1218.05077-.2324.12516-.3254.21889z" fill="#fff"/></svg>