<svg fill="none" height="24" viewBox="0 0 24 24" width="24" xmlns="http://www.w3.org/2000/svg"><path d="m9.28997 6.71c-.18625.18736-.29079.44081-.29079.705s.10454.51764.29079.705l3.88003 3.88-3.88003 3.88c-.10468.0896-.1897.2-.24972.324-.06003.1241-.09376.2592-.09908.3969-.00531.1378.01789.2751.06817.4034.05027.1283.12653.2449.22398.3424.09746.0974.21401.1737.34233.2239.12833.0503.26566.0735.40338.0682.13767-.0053.27287-.0391.39687-.0991.1241-.06.2344-.145.3241-.2497l4.59-4.59c.1862-.1874.2908-.4408.2908-.705s-.1046-.5176-.2908-.705l-4.59-4.59c-.1887-.18493-.4429-.28768-.70709-.2858-.26419.00187-.5169.10821-.70294.2958z" fill="#fff"/></svg>