<svg fill="none" height="24" viewBox="0 0 24 24" width="24" xmlns="http://www.w3.org/2000/svg"><path d="m17.67 18.61h-11.34c-.2493 0-.4884-.099-.66468-.2753s-.27532-.4154-.27532-.6647v-11.34c0-.2493.09904-.4884.27532-.66468s.41538-.27532.66468-.27532h4.73c.2339-.02409.4505-.13404.608-.30859.1575-.17456.2447-.40131.2447-.63641s-.0872-.46185-.2447-.63641c-.1575-.17455-.3741-.2845-.608-.30859h-5.67c-.50126 0-.98199.19912-1.33643.55357-.35445.35444-.55357.83517-.55357 1.33643v13.22c0 .5013.19912.982.55357 1.3364.35444.3545.83517.5536 1.33643.5536h13.22c.5013 0 .982-.1991 1.3364-.5536.3545-.3544.5536-.8351.5536-1.3364v-5.67c-.0241-.2339-.134-.4505-.3086-.608-.1745-.1575-.4013-.2447-.6364-.2447s-.4619.0872-.6364.2447c-.1746.1575-.2845.3741-.3086.608v4.73c0 .2493-.099.4884-.2753.6647s-.4154.2753-.6647.2753zm-3.78-14.17c.0119.24641.1145.47972.288.65509.1735.17536.4057.2804.652.29491h2.45l-8.62 8.61c-.1777.1777-.27752.4187-.27752.67s.09982.4923.27752.67c.17769.1777.4187.2775.67.2775s.4923-.0998.67-.2775l8.62-8.62v2.45c.0241.23387.134.45049.3086.60799.1745.15749.4013.24471.6364.24471s.4619-.08722.6364-.24471c.1746-.1575.2845-.37412.3086-.60799v-4.73c-.0143-.24464-.1179-.47552-.2912-.64881-.1733-.17328-.4042-.2769-.6488-.29119h-4.74c-.2446.01429-.4755.11791-.6488.29119-.1733.17329-.2769.40417-.2912.64881z" fill="#fff"/></svg>