<svg height="24" viewBox="0 0 24 24" width="24" xmlns="http://www.w3.org/2000/svg"><path d="m18.83 5.17c-1.17-1.17-3.06-1.17-6.83-1.17s-5.66 0-6.83 1.17-1.17 3.06-1.17 6.83 0 5.66 1.17 6.83 3.06 1.17 6.83 1.17 5.66 0 6.83-1.17 1.17-3.06 1.17-6.83 0-5.66-1.17-6.83zm-1 11c-.12.87-.3 1.14-.46 1.29s-.42.34-1.29.46a33.78 33.78 0 0 1 -4.08.08 33.78 33.78 0 0 1 -4.12-.13c-.87-.12-1.14-.3-1.29-.46s-.34-.42-.46-1.29a33.78 33.78 0 0 1 -.13-4.12 33.78 33.78 0 0 1 .13-4.12c.12-.87.3-1.14.46-1.29s.41-.34 1.29-.46a33.78 33.78 0 0 1 4.12-.13 33.78 33.78 0 0 1 4.12.13c.87.12 1.14.3 1.29.46s.34.42.46 1.29a33.78 33.78 0 0 1 .13 4.12 33.78 33.78 0 0 1 -.13 4.12z"/><path d="m15.38 8.08a1 1 0 0 0 -.38-.08h-5a1 1 0 0 0 0 2h2.59l-4.3 4.29a1 1 0 0 0 0 1.42 1 1 0 0 0 1.42 0l4.29-4.3v2.59a1 1 0 0 0 2 0v-5a1 1 0 0 0 -.08-.38 1 1 0 0 0 -.54-.54z"/></svg>