<svg enable-background="new 0 0 480 48" viewBox="0 0 480 48" xmlns="http://www.w3.org/2000/svg"><g fill="#fff"><path d="m122.5 24.7c-.8-.9-2.1-1.5-3.3-1.5 1-.2 2-.7 2.7-1.6.6-.7.9-1.7.8-2.7 0-.8-.2-1.6-.5-2.4-.4-.7-1-1.3-1.6-1.6-.7-.4-1.5-.6-2.3-.7-1.6-.2-3.1-.3-4.8-.2h-5.5v20h5.7c1.6 0 3.3 0 4.9-.2.9-.1 1.7-.4 2.6-.7.8-.5 1.5-1.1 1.9-1.8.5-.8.7-1.8.6-2.8.1-1.5-.4-2.8-1.2-3.8zm-9.5-6.3h1.2c.9-.1 1.9.1 2.7.5.5.4.7 1 .7 1.6.1.6-.3 1.2-.7 1.6-.8.4-1.8.5-2.7.5h-1.1zm4.7 11.5c-.8.4-1.8.5-2.7.5h-2v-4.4h2c.9-.1 1.9.1 2.7.5.5.5.8 1.1.7 1.7.2.7 0 1.4-.7 1.7z"/><path d="m129.4 28.9c-1.4 0-2.6 1.1-2.6 2.6 0 1.4 1.1 2.6 2.6 2.6s2.6-1.1 2.6-2.6-1.1-2.6-2.6-2.6z"/><path d="m127.2 14h4.4v13.3h-4.4z"/><path d="m18.8 35.5c10.7 0 16.5-8.9 16.5-16.5 0-.2 0-.5 0-.8 1.1-.8 2.1-1.8 2.9-3-1.1.5-2.2.8-3.3.9 1.2-.7 2.1-1.9 2.5-3.2-1.1.7-2.4 1.2-3.7 1.4-2.2-2.3-5.9-2.5-8.2-.3-1.5 1.4-2.2 3.6-1.7 5.6-4.7-.2-9-2.4-12-6.1-1.5 2.7-.8 6 1.8 7.8-.9 0-1.8-.3-2.6-.7v.1c0 2.8 2 5.1 4.7 5.7-.9.2-1.8.3-2.6.1.8 2.4 3 4 5.4 4-2.1 1.6-4.6 2.5-7.2 2.5-.5 0-.9 0-1.4-.1 2.6 1.7 5.7 2.6 8.9 2.6"/><path d="m158.4 13.5c-1.1 0-2 .9-2 2v.1 7.7c0 6.3 6.2 11.2 11.6 11.2 6.1 0 11.7-5.2 11.7-11.2v-7.7c.1-1.1-.8-2-1.9-2.1-.1 0-.1 0-.2 0zm4.9 6.3 4.7 4.4 4.7-4.4c2.1-.9 3 1.5 2.1 2.2l-6.1 5.8c-.5.2-1 .2-1.5 0l-6.1-5.8c-.8-.8.3-3.2 2.2-2.2z"/><path d="m229.5 22.4c0-6.1-6.1-11.1-13.6-11.1s-13.6 5-13.6 11.1c0 5.5 4.8 10.1 11.4 10.9.5.1 1 .3 1.2.7.2.3.1.9.1 1.2 0 0-.2.9-.2 1.2-.1.3-.3 1.3 1.2.7s7.9-4.6 10.7-7.9c1.9-2.2 2.8-4.3 2.8-6.8zm-18.4 3.3c0 .2-.2.2-.2.2h-3.8c-.1 0-.2 0-.2-.1-.1-.1-.1-.1-.1-.2v-5.9c0-.2.2-.2.2-.2h.9c.2 0 .2.2.2.2v4.7h2.6c.2 0 .2.2.2.2zm2.3 0c0 .2-.2.2-.2.2h-.9c-.2 0-.2-.2-.2-.2v-5.9c0-.2.2-.2.2-.2h.9c.2 0 .2.2.2.2zm6.6 0c0 .2-.2.2-.2.2h-.9-.1s-.1 0-.1-.1l-2.7-3.7v3.5c0 .2-.2.2-.2.2h-.9c-.2 0-.2-.2-.2-.2v-5.9c0-.2.2-.2.2-.2h.9l2.7 3.7v-3.5c0-.2.2-.2.2-.2h.9c.2 0 .2.2.2.2v6zm5.3-5c0 .2-.2.2-.2.2h-2.6v1h2.6c.2 0 .2.2.2.2v.9c0 .2-.2.2-.2.2h-2.6v1h2.6c.2 0 .2.2.2.2v.9c0 .2-.2.2-.2.2h-3.8c-.1 0-.2 0-.2-.1-.1-.1-.1-.1-.1-.2v-5.9c0-.1 0-.2.1-.2.1-.1.1-.1.2-.1h3.8c.2 0 .2.2.2.2z"/><path d="m86 24.1c0-7.7-6.3-14-14-14s-14 6.3-14 14c0 7 5.1 12.8 11.8 13.8v-9.8h-3.6v-4h3.6v-3.1c0-3.5 2.1-5.4 5.3-5.4 1.5 0 3.1.3 3.1.3v3.4h-1.8c-1.7 0-2.3 1.1-2.3 2.2v2.6h3.9l-.6 4h-3.3v9.8c6.8-1.1 11.9-6.8 11.9-13.8z"/><circle cx="255.7" cy="32.3" r="3.2"/><path d="m252.5 12.5v4.2c10.4 0 18.8 8.4 18.8 18.8h4.2c0-12.7-10.3-23-23-23zm0 8.4v4.1c5.8 0 10.5 4.7 10.5 10.5h4.2c-.1-8.1-6.6-14.6-14.7-14.6z"/><path d="m312.3 30.2 1.6 1.6c.2.2.2.5 0 .6l-1.2 1.2c-.1.1-.2.1-.2.1h-1s-.1 0-.2-.1l-1.2-1.2c-.2-.2-.2-.5 0-.6l1.6-1.6c.1-.2.4-.2.6 0zm0-6.5 1.6 1.6c.2.2.2.5 0 .6l-4.5 4.4c-.1.1-.2.1-.2.1h-1s-.1 0-.2-.1l-1.2-1.2c-.2-.2-.2-.5 0-.6l4.9-4.8c.2-.2.4-.2.6 0zm0-6.5 1.6 1.6c.2.2.2.5 0 .6l-7.7 7.7c-.1.1-.2.1-.2.1h-1s-.1 0-.2-.1l-1.2-1.2c-.2-.2-.2-.5 0-.6l8.1-8.1c.2-.2.4-.2.6 0zm2-4.6c-1.3-1.3-3.3-1.3-4.6 0l-10.7 10.7c-1.3 1.3-1.3 3.3 0 4.6l7.7 7.7c.3.3 1.1.7 1.7.7h7.1c.4 0 1.4-.3 1.8-.8l7.7-7.7c1.3-1.3 1.3-3.3 0-4.6z"/><path d="m370.7 33.4c-12.1 5.7-19.5.9-24.3-2-.3-.2-.8 0-.4.5 1.6 1.9 6.8 6.6 13.6 6.6s10.9-3.7 11.4-4.4c.6-.5.2-.9-.3-.7zm3.4-1.8c-.3-.4-2-.5-3-.4s-2.6.8-2.5 1.1c.1.1.2.1.9 0s2.7-.3 3.1.2-.6 3.2-.8 3.6.1.5.4.2 1-1 1.4-2c.5-1 .7-2.4.5-2.7z"/><path clip-rule="evenodd" d="m362.6 21.7c0 1.5 0 2.8-.7 4.1-.6 1.1-1.6 1.8-2.7 1.8-1.5 0-2.3-1.1-2.3-2.8 0-3.3 2.9-3.9 5.7-3.9zm3.9 9.4c-.3.2-.6.2-.9.1-1.3-1.1-1.5-1.6-2.2-2.6-2.1 2.2-3.6 2.8-6.4 2.8-3.2 0-5.8-2-5.8-6 0-3.1 1.7-5.3 4.1-6.3 2.1-.9 5-1.1 7.3-1.3v-.5c0-.9.1-2-.5-2.8-.5-.7-1.4-1-2.2-1-1.5 0-2.8.8-3.1 2.3-.1.3-.3.7-.7.7l-3.7-.4c-.3-.1-.7-.3-.6-.8.9-4.5 5-5.9 8.6-5.9 1.9 0 4.3.5 5.8 1.9 1.9 1.8 1.7 4.1 1.7 6.6v6c0 1.8.7 2.6 1.5 3.6.2.3.3.8 0 1-.7.8-2.1 2-2.9 2.6z" fill-rule="evenodd"/><path d="m370.7 33.4c-12.1 5.7-19.5.9-24.3-2-.3-.2-.8 0-.4.5 1.6 1.9 6.8 6.6 13.6 6.6s10.9-3.7 11.4-4.4c.6-.5.2-.9-.3-.7zm3.4-1.8c-.3-.4-2-.5-3-.4s-2.6.8-2.5 1.1c.1.1.2.1.9 0s2.7-.3 3.1.2-.6 3.2-.8 3.6.1.5.4.2 1-1 1.4-2c.5-1 .7-2.4.5-2.7z"/><path clip-rule="evenodd" d="m362.6 21.7c0 1.5 0 2.8-.7 4.1-.6 1.1-1.6 1.8-2.7 1.8-1.5 0-2.3-1.1-2.3-2.8 0-3.3 2.9-3.9 5.7-3.9zm3.9 9.4c-.3.2-.6.2-.9.1-1.3-1.1-1.5-1.6-2.2-2.6-2.1 2.2-3.6 2.8-6.4 2.8-3.2 0-5.8-2-5.8-6 0-3.1 1.7-5.3 4.1-6.3 2.1-.9 5-1.1 7.3-1.3v-.5c0-.9.1-2-.5-2.8-.5-.7-1.4-1-2.2-1-1.5 0-2.8.8-3.1 2.3-.1.3-.3.7-.7.7l-3.7-.4c-.3-.1-.7-.3-.6-.8.9-4.5 5-5.9 8.6-5.9 1.9 0 4.3.5 5.8 1.9 1.9 1.8 1.7 4.1 1.7 6.6v6c0 1.8.7 2.6 1.5 3.6.2.3.3.8 0 1-.7.8-2.1 2-2.9 2.6z" fill-rule="evenodd"/><path d="m402.6 26.7c-.2 1.3-1.2 7.3-1.4 9 0 .1-.1.2-.2.2h-5c-.5 0-.9-.4-.8-.9l4-25.1c.1-.6.7-1.1 1.3-1.1 10.3 0 11.1-.2 13.8.8 4.1 1.6 4.4 5.4 3 9.5-1.4 4.2-4.9 6-9.4 6.1-3.2-.1-4.9-.6-5.3 1.5zm16.5-9.7c-.1-.1-.2-.1-.2.1-.1.8-.3 1.5-.6 2.3-2.7 7.7-10.1 7-13.8 7-.4 0-.7.2-.7.6-1.5 9.5-1.8 11.4-1.8 11.4-.1.5.2.9.7.9h4.3c.6 0 1.1-.4 1.2-1 0-.4-.1.4 1-6.2.3-1.5 1-1.3 2-1.3 4.8 0 8.5-1.9 9.6-7.6.4-2.3.2-4.8-1.7-6.2z"/><path d="m470.6 11.9h-29.3c-.6 0-1 .4-1 1v22.1c0 .6.4 1 1 1h29.3c.6 0 1-.4 1-1v-22.1c.1-.6-.4-1-1-1zm-13.3 6.4h8.7c.3 0 .4.2.4.4v1.4c0 .3-.2.4-.4.4h-8.7zm-7.8 11.1c-3 .2-5.7-2.2-5.8-5.2-.2-3 2.2-5.7 5.2-5.8h.6c1.4 0 2.7.5 3.7 1.5l-1.6 1.6c-.6-.5-1.3-.9-2.1-.9-1.8 0-3.3 1.5-3.3 3.3s1.5 3.3 3.3 3.3c1.4.2 2.7-.8 3-2.2h-3v-2.1h5.2c.1.3.1.7.1 1 .2 2.8-1.9 5.2-4.8 5.4-.2.1-.4.1-.5.1zm17-.4c0 .3-.2.4-.4.4h-8.7v-2.3h8.7c.3 0 .4.2.4.4zm1.4-4.4c0 .3-.2.4-.4.4h-10.1v-2.4h10.1c.3 0 .4.2.4.4z"/></g></svg>