<svg fill="none" height="24" viewBox="0 0 24 24" width="24" xmlns="http://www.w3.org/2000/svg"><path d="m22 12c-.0005-1.9111-.5485-3.78196-1.5793-5.3912-1.0307-1.60925-2.501-2.88945-4.2368-3.68902-1.7357-.79958-3.6642-1.08504-5.5572-.82261-1.89291.26244-3.67102 1.06179-5.12378 2.30342-1.45275 1.24163-2.5193 2.87353-3.07339 4.7025-.55408 1.82901-.57248 3.77841-.05302 5.61751.51945 1.8391 1.55501 3.4908 2.98407 4.7597 1.42906 1.2688 3.19176 2.1016 5.07942 2.3997v-7h-2.54v-2.88h2.54v-2.2c-.0559-.51415.0022-1.0343.1701-1.52346.168-.48915.4417-.93529.8016-1.30668.3599-.37138.7973-.6589 1.2809-.84208.4837-.18318 1.0017-.25754 1.5174-.21778.7502.0098 1.4988.07329 2.24.19v2.46h-1.26c-.2146-.02762-.4326-.00688-.6381.06071-.2055.06758-.3933.18029-.5496.32987-.1563.14959-.2771.33224-.3537.53459-.0765.20235-.1068.41926-.0886.63483v1.88h2.78l-.45 2.89h-2.33v7c2.3547-.3719 4.4992-1.5728 6.0467-3.3861 1.5475-1.8134 2.3963-4.12 2.3933-6.5039z" fill="#fff"/></svg>