<svg height="24" viewBox="0 0 24 24" width="24" xmlns="http://www.w3.org/2000/svg"><path d="m20.4 5.05h-16.8a.6.6 0 0 0 -.6.6v12.7a.6.6 0 0 0 .6.6h16.8a.6.6 0 0 0 .6-.6v-12.7a.6.6 0 0 0 -.6-.6zm-7.64 3.71h5a.26.26 0 0 1 .26.26v.8a.26.26 0 0 1 -.26.26h-5zm-4.5 6.35a3.18 3.18 0 1 1 0-6.35 3 3 0 0 1 2.13.83l-.91.9a1.75 1.75 0 0 0 -1.22-.49 1.92 1.92 0 0 0 0 3.84 1.61 1.61 0 0 0 1.74-1.24h-1.74v-1.2h3a4.07 4.07 0 0 1 .05.61 2.92 2.92 0 0 1 -3.05 3.1zm9.79-.26a.26.26 0 0 1 -.26.26h-5v-1.32h5a.26.26 0 0 1 .26.26zm.8-2.52a.27.27 0 0 1 -.27.27h-5.82v-1.33h5.82a.27.27 0 0 1 .27.27z"/></svg>