<svg fill="none" height="24" viewBox="0 0 24 24" width="24" xmlns="http://www.w3.org/2000/svg"><path d="m12 4.59c1.2242-.04162 2.4499-.00822 3.67.1.568-.00258 1.1313.10261 1.66.31.3912.1386.7513.35264 1.06.63.3108.28362.5243.65805.61 1.07.2115.5244.3201 1.08458.32 1.65 0 1 .11 1.27.11 3.67.0483 1.2211.0116 2.444-.11 3.66-.0008.5686-.1094 1.1319-.32 1.66-.3271.7443-.9237 1.3373-1.67 1.66-.5287.2074-1.092.3126-1.66.31-.95 0-1.27.11-3.67.11-1.2244.0483-2.45068.0115-3.67-.11-.56796.0026-1.13125-.1026-1.66-.31-.39163-.1423-.7517-.3597-1.06-.64-.29581-.2673-.50771-.6147-.61-1-.21058-.5281-.31916-1.0914-.32-1.66 0-.95-.11-1.27-.11-3.66-.04829-1.2244-.01153-2.45068.11-3.67-.00267-.57215.10601-1.13936.32-1.67.1386-.39116.35264-.75131.63-1.06.26087-.30963.60957-.5328 1-.64.52815-.21058 1.09142-.31916 1.66-.32.95 0 1.27-.1 3.67-.1zm0-1.59c-1.2244-.04829-2.45068-.01153-3.67.11-.74178.06941-1.47516.21006-2.19.42-.5976.21734-1.13071.58192-1.55 1.06-.46766.42843-.83037.9588-1.06 1.55-.27931.69278-.42193 1.43305-.42 2.18 0 .95-.11 1.27-.11 3.68-.04829 1.2244-.01153 2.4507.11 3.67-.00193.747.14069 1.4872.42 2.18.22868.6033.59109 1.1469 1.06 1.59.44021.4391.96848.7799 1.55 1 .69653.2784 1.4399.421 2.19.42.95 0 1.27.11 3.67.11 1.2244.0483 2.4507.0115 3.67-.11.7418-.0694 1.4752-.2101 2.19-.42.5995-.2148 1.1442-.5592 1.5953-1.0086s.7976-.9928 1.0147-1.5914c.2784-.6965.421-1.4399.42-2.19 0-1 .11-1.27.11-3.66.0483-1.2244.0115-2.45068-.11-3.67.0019-.74695-.1407-1.48722-.42-2.18-.2173-.5976-.5819-1.13071-1.06-1.55-.4284-.46766-.9588-.83037-1.55-1.06-.6965-.2784-1.4399-.42097-2.19-.42-1.2179-.14149-2.4458-.17829-3.67-.11zm0 4.4c-.9089.00396-1.7963.2771-2.55015.78495-.75383.50785-1.34031 1.22764-1.68541 2.06855-.34509.8409-.43334 1.7651-.2536 2.6561.17975.891.61942 1.7088 1.26354 2.3501.64411.6413 1.46382 1.0774 2.35552 1.2533.8918.1759 1.8157.0836 2.655-.2651.8394-.3487 1.5567-.9383 2.0612-1.6944.5046-.756.7739-1.6446.7739-2.5535-.0131-1.2194-.5047-2.38484-1.3688-3.24526-.8642-.86042-2.0318-1.34694-3.2512-1.35474zm0 7.65c-.5933 0-1.1734-.1759-1.6667-.5056-.49335-.3296-.87787-.7982-1.10494-1.3463-.22706-.5482-.28647-1.1514-.17071-1.7334.11575-.5819.40148-1.1165.82103-1.53602.41952-.41955.95412-.70528 1.53602-.82103.582-.11576 1.1852-.05635 1.7334.17071.5481.22707 1.0167.61159 1.3463 1.10494.3297.4933.5056 1.0734.5056 1.6667-.0154.7908-.3364 1.545-.8957 2.1043s-1.3135.8803-2.1043.8957zm3.78-7.86c-.0138.13855-.0002.27845.0401.41173.0403.13327.1064.25731.1947.36502.0882.10772.1967.19701.3195.26276.1227.06576.2572.1067.3957.12049s.2785.00016.4117-.04012c.1333-.04028.2573-.10642.3651-.19463.1077-.08822.197-.19679.2627-.31951.0658-.12272.1067-.25719.1205-.39574.01-.06964.01-.14035 0-.21-.0255-.26208-.1477-.50527-.3427-.68221-.1951-.17694-.449-.27495-.7123-.27495s-.5172.09801-.7122.27495c-.1951.17694-.3173.42013-.3428.68221z" fill="#fff"/></svg>