<svg fill="none" height="24" viewBox="0 0 24 24" width="24" xmlns="http://www.w3.org/2000/svg"><path d="m19 5.68c-1.6169-1.36049-3.6896-2.05733-5.8-1.95-6.07 0-10.2 4.72-10.2 4.72l1.14 1.84s.63.1.32-1c.51155-.83937 1.16847-1.58094 1.94-2.19v12.34c-.52.11-1.15.42-.73.84h3.33c.41-.42-.21-.73-.73-.84v-3c1.52666.5369 3.1167.8731 4.73 1 2.0382.0292 4.0286-.6179 5.66-1.84.7423-.5712 1.3406-1.3083 1.7469-2.1522.4064-.8439.6095-1.7713.5931-2.7078.1049-.9426-.0225-1.89656-.3711-2.77859-.3486-.88202-.9079-1.66529-1.6289-2.28141zm-1.83 8.84c-1.162 1.0509-2.6733 1.6319-4.24 1.63-1.5617.0001-3.10677-.3198-4.54-.94v-9.21c1.36465-.8508 2.9323-1.32042 4.54-1.36.7887-.01918 1.5727.12557 2.3026.42508.7298.29951 1.3895.74726 1.9374 1.31492 1.0075 1.13961 1.5625 2.6089 1.56 4.13.0471.7446-.0731 1.4903-.3517 2.1825-.2785.6921-.7085 1.3131-1.2583 1.8175z" fill="#fff"/></svg>