<svg fill="none" height="24" viewBox="0 0 24 24" width="24" xmlns="http://www.w3.org/2000/svg"><g fill="#fff"><path d="m6.24 20c1.23712 0 2.24-1.0029 2.24-2.24s-1.00288-2.24-2.24-2.24-2.24 1.0029-2.24 2.24 1.00288 2.24 2.24 2.24z"/><path d="m4 4v2.91c3.47168 0 6.8012 1.37912 9.256 3.834 2.4549 2.4548 3.834 5.7843 3.834 9.256h2.91c0-4.2435-1.6857-8.3131-4.6863-11.31371-3.0006-3.00058-7.07024-4.68629-11.3137-4.68629zm0 5.82v2.91c1.92731.0026 3.77493.7694 5.13774 2.1323 1.36286 1.3628 2.12966 3.2104 2.13226 5.1377h2.91c0-1.3369-.2633-2.6606-.7749-3.8957s-1.2615-2.3573-2.2068-3.3026-2.06749-1.6952-3.30258-2.2068c-1.2351-.5116-2.55886-.7749-3.89572-.7749z"/></g></svg>