<?xml version="1.0" encoding="utf-8"?><svg xmlns="http://www.w3.org/2000/svg" xmlns:xlink="http://www.w3.org/1999/xlink"><symbol viewBox="0 0 24 24" id="backhome" xmlns="http://www.w3.org/2000/svg"><path d="M4.15 5.24A2 2 0 004 6v10a2 2 0 004 0v-5.17l8.59 8.58a2 2 0 102.82-2.82L10.83 8H16a2 2 0 000-4H6a2 2 0 00-.76.15 2.07 2.07 0 00-1.09 1.09z"/></symbol><symbol viewBox="0 0 24 24" id="close" xmlns="http://www.w3.org/2000/svg"><path d="M18.3 5.71a1 1 0 00-1.41 0L12 10.59 7.11 5.7A1 1 0 005.7 7.11L10.59 12 5.7 16.89a1 1 0 001.41 1.41L12 13.41l4.89 4.89a1 1 0 001.41-1.41L13.41 12l4.89-4.89a1 1 0 000-1.4z"/></symbol><symbol viewBox="0 0 24 24" id="code" xmlns="http://www.w3.org/2000/svg"><path d="M8.7 15.9L4.8 12l3.9-3.9a1 1 0 00-1.4-1.4l-4.59 4.59a1 1 0 000 1.41l4.59 4.6a1 1 0 101.4-1.4zm6.6 0l3.9-3.9-3.9-3.9a1 1 0 011.4-1.4l4.59 4.59a1 1 0 010 1.41l-4.59 4.6a1.001 1.001 0 11-1.4-1.4z"/></symbol><symbol viewBox="0 0 24 24" id="contact" xmlns="http://www.w3.org/2000/svg"><path clip-rule="evenodd" d="M4.607 6.607c.238-.238.573-.408 1.268-.504C6.603 6.003 7.57 6 9 6h6c1.429 0 2.397.002 3.125.103.695.096 1.03.266 1.268.504s.408.573.504 1.268c.024.173.042.36.056.562L12 12.856 4.047 8.437c.014-.203.032-.39.056-.562.096-.695.266-1.03.504-1.268zm-2.58 2.165a.997.997 0 00-.014.391A72.96 72.96 0 002 10.928v2.144c0 1.339 0 2.446.122 3.328.129.93.41 1.745 1.07 2.407.663.662 1.478.942 2.408 1.071C6.482 20 7.59 20 8.928 20h6.144c1.339 0 2.446 0 3.328-.122.93-.129 1.745-.41 2.407-1.07s.942-1.478 1.071-2.408c.122-.882.122-1.99.122-3.328v-2.144c0-.64 0-1.23-.013-1.765a.997.997 0 00-.013-.391 12.306 12.306 0 00-.096-1.172c-.129-.93-.41-1.745-1.07-2.407-.663-.662-1.478-.942-2.408-1.071C17.518 4 16.41 4 15.072 4H8.928C7.59 4 6.482 4 5.6 4.122c-.93.129-1.745.41-2.407 1.07C2.53 5.856 2.25 6.67 2.122 7.6c-.05.354-.078.745-.096 1.172zM20 10.7V13c0 1.429-.002 2.397-.103 3.125-.096.695-.266 1.03-.504 1.268s-.573.408-1.268.504c-.728.1-1.696.103-3.125.103H9c-1.429 0-2.397-.002-3.125-.103-.695-.096-1.03-.266-1.268-.504s-.408-.573-.504-1.268C4.003 15.397 4 14.43 4 13v-2-.3l7.514 4.174a1 1 0 00.972 0z" fill-rule="evenodd"/></symbol><symbol viewBox="0 0 24 24" id="design" xmlns="http://www.w3.org/2000/svg"><path d="M3 17.46v3a.5.5 0 00.5.5h3a.469.469 0 00.35-.15L17.81 9.94l-3.75-3.75L3.15 17.1a.49.49 0 00-.15.36zM20.71 7a1 1 0 000-1.41l-2.34-2.3a1 1 0 00-1.41 0l-1.83 1.83 3.75 3.75z"/></symbol><symbol viewBox="0 0 24 24" id="dribbble" xmlns="http://www.w3.org/2000/svg"><path clip-rule="evenodd" d="M12 2a10 10 0 100 20 10 10 0 000-20zm6.61 4.61a8.26 8.26 0 011.93 5.32 20.692 20.692 0 00-5.93-.29c-.07-.14-.11-.28-.18-.43-.18-.39-.36-.82-.57-1.25a11.25 11.25 0 004.75-3.35zM12 3.46a8.56 8.56 0 015.68 2.15 9.59 9.59 0 01-4.47 3.07 50.824 50.824 0 00-3.17-5A8.6 8.6 0 0112 3.46zm-3.64.83a59.533 59.533 0 013.18 4.92 30.942 30.942 0 01-7.9 1 8.51 8.51 0 014.72-5.92zM3.46 12v-.25c2.972.009 5.93-.399 8.79-1.21.25.46.46 1 .68 1.46l-.32.11a13.56 13.56 0 00-6.93 5.64A8.44 8.44 0 013.46 12zM12 20.54a8.46 8.46 0 01-5.25-1.79 11.67 11.67 0 016.71-5.32 33.81 33.81 0 011.82 6.47 8.2 8.2 0 01-3.28.64zm4.75-1.47A38.887 38.887 0 0015.11 13a12.75 12.75 0 015.32.36 8.44 8.44 0 01-3.68 5.71z" fill-rule="evenodd"/></symbol><symbol viewBox="0 0 24 24" id="facebook" xmlns="http://www.w3.org/2000/svg"><path d="M22 12a10 10 0 10-11.56 9.88v-7H7.9V12h2.54V9.8a3.52 3.52 0 013.77-3.89c.75.01 1.499.073 2.24.19v2.46h-1.26a1.45 1.45 0 00-1.63 1.56V12h2.78l-.45 2.89h-2.33v7A10 10 0 0022 12z"/></symbol><symbol viewBox="0 0 24 24" id="feedly" xmlns="http://www.w3.org/2000/svg"><path d="M12.22 16.44l1.13 1.14a.31.31 0 010 .45l-.84.83a.171.171 0 01-.14.06h-.74a.18.18 0 01-.14-.05l-.85-.87a.31.31 0 010-.45l1.12-1.13a.34.34 0 01.46 0zm0-4.66l1.13 1.14a.31.31 0 010 .45l-3.18 3.17a.171.171 0 01-.14.06H9.3a.2.2 0 01-.14-.05l-.85-.86a.311.311 0 010-.45l3.46-3.46a.34.34 0 01.46 0zm0-4.65l1.13 1.13a.318.318 0 010 .46l-5.51 5.5a.16.16 0 01-.14.06H7a.2.2 0 01-.14 0L6 13.37a.311.311 0 010-.45l5.79-5.79a.34.34 0 01.44 0zm1.42-3.29a2.34 2.34 0 00-3.3 0L2.68 11.5a2.32 2.32 0 000 3.29l5.53 5.53c.344.3.775.483 1.23.52h5.08a2.34 2.34 0 001.29-.54l5.51-5.51a2.32 2.32 0 000-3.29l-7.67-7.66z"/></symbol><symbol viewBox="0 0 24 24" id="github" xmlns="http://www.w3.org/2000/svg"><path d="M15.21 21.48A10 10 0 102.54 15.2a9.871 9.871 0 005.67 6h.11c.68-.2 1.61-.75 1.61-1.65v-1.46c-2.25.53-2.72-.93-2.72-.93A2.08 2.08 0 006.36 16c-.72-.47.07-.47.07-.47a1.62 1.62 0 011.28.79A1.76 1.76 0 0010 17a1.85 1.85 0 01.53-1.08c-1.78-.21-3.68-.92-3.68-4a3 3 0 01.79-2.15 2.79 2.79 0 01.07-2.14s.68-.25 2.21.79a6.14 6.14 0 012-.25 7.51 7.51 0 012 .25c1.54-1 2.22-.79 2.22-.79a3.63 3.63 0 01.14 2.21 3.19 3.19 0 01.83 2.16c0 3.14-1.86 3.78-3.68 4a1.87 1.87 0 01.57 1.41v2.21a2.28 2.28 0 001.25 1.86z"/></symbol><symbol viewBox="0 0 24 24" id="google-news" xmlns="http://www.w3.org/2000/svg"><path d="M20.4 5.05H3.6a.6.6 0 00-.6.6v12.7a.6.6 0 00.6.6h16.8a.6.6 0 00.6-.6V5.65a.6.6 0 00-.6-.6zm-7.64 3.71h5a.26.26 0 01.26.26v.8a.26.26 0 01-.26.26h-5zm-4.5 6.35a3.18 3.18 0 110-6.35 3 3 0 012.13.83l-.91.9A1.75 1.75 0 008.26 10a1.92 1.92 0 000 3.84A1.61 1.61 0 0010 12.6H8.26v-1.2h3a4.07 4.07 0 01.05.61 2.92 2.92 0 01-3.05 3.1zm9.79-.26a.26.26 0 01-.26.26h-5v-1.32h5a.26.26 0 01.26.26zm.8-2.52a.27.27 0 01-.27.27h-5.82v-1.33h5.82a.27.27 0 01.27.27z"/></symbol><symbol viewBox="0 0 24 24" id="hatebu" xmlns="http://www.w3.org/2000/svg"><path d="M13.86 12.53a3.552 3.552 0 00-2.49-1.12 4 4 0 002.07-1.14 3 3 0 00.65-2 3.62 3.62 0 00-.44-1.79 3.24 3.24 0 00-1.27-1.22 5.18 5.18 0 00-1.73-.57 25.641 25.641 0 00-3.54-.19H3v15h4.24c1.23.028 2.459-.029 3.68-.17a6 6 0 001.88-.59 3.35 3.35 0 001.45-1.41 4.26 4.26 0 00.51-2.12 3.85 3.85 0 00-.9-2.68zM6.8 7.82h.88a4.08 4.08 0 012 .34 1.32 1.32 0 01.52 1.19 1.23 1.23 0 01-.56 1.15 4.46 4.46 0 01-2.07.33H6.8v-3zm3.48 8.6a4.23 4.23 0 01-2 .36H6.8v-3.27h1.49a3.88 3.88 0 012 .38 1.5 1.5 0 01.55 1.32 1.22 1.22 0 01-.6 1.21zM21 17.6a1.9 1.9 0 11-3.8 0 1.9 1.9 0 013.8 0zM17.45 4.5h3.3v10h-3.3z"/></symbol><symbol viewBox="0 0 24 24" id="instagram" xmlns="http://www.w3.org/2000/svg"><path d="M12 4.59a30.002 30.002 0 013.67.1 4.49 4.49 0 011.66.31 3.17 3.17 0 011.06.63A2 2 0 0119 6.7a4.41 4.41 0 01.32 1.65c0 1 .11 1.27.11 3.67a26.325 26.325 0 01-.11 3.66c0 .569-.11 1.132-.32 1.66A3.22 3.22 0 0117.33 19a4.49 4.49 0 01-1.66.31c-.95 0-1.27.11-3.67.11-1.224.048-2.45.011-3.67-.11A4.49 4.49 0 016.67 19a3.2 3.2 0 01-1.06-.64 2.06 2.06 0 01-.61-1 4.5 4.5 0 01-.32-1.66c0-.95-.11-1.27-.11-3.66a26.481 26.481 0 01.11-3.67A4.41 4.41 0 015 6.7a3.17 3.17 0 01.63-1.06 2 2 0 011-.64 4.5 4.5 0 011.66-.32c.95 0 1.27-.1 3.67-.1zM12 3a26.481 26.481 0 00-3.67.11c-.742.07-1.475.21-2.19.42a3.78 3.78 0 00-1.55 1.06 4.13 4.13 0 00-1.06 1.55 5.79 5.79 0 00-.42 2.18C3.11 9.27 3 9.59 3 12a26.481 26.481 0 00.11 3.67 5.79 5.79 0 00.42 2.18 4.27 4.27 0 001.06 1.59c.44.44.968.78 1.55 1a5.88 5.88 0 002.19.42c.95 0 1.27.11 3.67.11 1.224.048 2.45.012 3.67-.11.742-.07 1.475-.21 2.19-.42a4.33 4.33 0 002.61-2.6 5.88 5.88 0 00.42-2.19c0-1 .11-1.27.11-3.66.048-1.224.012-2.45-.11-3.67a5.79 5.79 0 00-.42-2.18 3.78 3.78 0 00-1.06-1.55 4.13 4.13 0 00-1.55-1.06 5.88 5.88 0 00-2.19-.42A21.45 21.45 0 0012 3zm0 4.4a4.6 4.6 0 104.62 4.6A4.65 4.65 0 0012 7.4zm0 7.65a3 3 0 113-3 3.06 3.06 0 01-3 3zm3.78-7.86a1.06 1.06 0 102.11.21c.01-.07.01-.14 0-.21a1.06 1.06 0 00-2.11 0z"/></symbol><symbol viewBox="0 0 24 24" id="less" xmlns="http://www.w3.org/2000/svg"><path d="M11.29 8.71L6.7 13.3a1 1 0 101.41 1.41L12 10.83l3.88 3.88a1 1 0 101.41-1.41L12.7 8.71a1 1 0 00-1.41 0z"/></symbol><symbol viewBox="0 0 24 24" id="line" xmlns="http://www.w3.org/2000/svg"><path d="M22 10.59c0-4.48-4.49-8.12-10-8.12S2 6.11 2 10.59c0 4 3.56 7.37 8.36 8 .33.07.77.22.88.5a2.11 2.11 0 010 .9s-.12.71-.15.86-.2 1 .87.54a32.45 32.45 0 007.86-5.81A7.21 7.21 0 0022 10.59zM8.47 13a.2.2 0 01-.19.19H5.47a.21.21 0 01-.13-.05.19.19 0 010-.13V8.62a.2.2 0 01.2-.2h.7a.2.2 0 01.19.2v3.46h1.85a.2.2 0 01.19.19zm1.69 0a.19.19 0 01-.19.19h-.7a.2.2 0 01-.2-.19V8.62a.2.2 0 01.2-.2H10a.19.19 0 01.19.2zM15 13a.2.2 0 01-.19.19H14v-.05l-2-2.7V13a.2.2 0 01-.2.19H11a.2.2 0 01-.2-.19V8.62a.2.2 0 01.2-.2h.85l2 2.7v-2.5a.2.2 0 01.19-.2h.71a.2.2 0 01.19.2zm3.87-3.66a.19.19 0 01-.19.2h-1.92v.73h1.91a.19.19 0 01.19.2v.7a.18.18 0 01-.19.19h-1.91v.74h1.91a.19.19 0 01.19.19V13a.19.19 0 01-.19.19h-2.8a.24.24 0 01-.14-.05.16.16 0 01-.06-.13V8.62a.16.16 0 01.06-.13.22.22 0 01.14-.06h2.8a.19.19 0 01.19.2z"/></symbol><symbol viewBox="0 0 24 24" id="link" xmlns="http://www.w3.org/2000/svg"><path d="M17 7h-3a1 1 0 100 2h3a3 3 0 010 6h-3a1 1 0 000 2h3a5 5 0 100-10zm-9 5a1 1 0 001 1h6a1 1 0 000-2H9a1 1 0 00-1 1zm2 3H7a3 3 0 010-6h3a1 1 0 100-2H7a5 5 0 100 10h3a1 1 0 000-2z"/></symbol><symbol viewBox="0 0 960 240" id="logo" xmlns="http://www.w3.org/2000/svg"><path d="M861.73 30.45C852.33 10.4 847.63.37 840 .37s-12.33 10-21.73 30.08L736 205.83c-7.21 15.37-10.81 23-7.28 28.61s12 5.56 29 5.56h164.52c17 0 25.47 0 29-5.56s-.07-13.24-7.27-28.61zM198.49 211.74c17.56 18.71 26.34 28.07 33.92 25.08S240 221 240 195.33V24.09c0-11.31 0-17-3.51-20.48S227.31.1 216 .1H37.76c-17 0-25.47 0-29 5.56S8.82 18.9 16 34.27l82.27 175.38c9.4 20 14.1 30.08 21.73 30.08s12.33-10 21.73-30.08l3.24-6.91c6.81-14.52 10.22-21.78 16.5-22.78s11.77 4.85 22.74 16.55zM702 171.83c0 18-4.9 32.48-15 43.58-14.6 16.39-36.7 24.49-66.5 24.49H546c-11.31 0-17 0-20.48-3.51s-3.52-9.17-3.52-20.48V24c0-11.31 0-17 3.52-20.48S534.69 0 546 0h67.3q66.45 0 66.5 62.47c0 12.7-2.5 23.19-7.2 31.59-4.67 8.17-2.15 22.52 5.85 27.47a40.68 40.68 0 0114 13.91c6.45 10.5 9.55 22.56 9.55 36.39zM470 24.09c0-11.31 0-17-3.51-20.48S457.31.1 446 .1H314c-11.31 0-17 0-20.48 3.51S290 12.78 290 24.09V216c0 11.31 0 17 3.52 20.48S302.69 240 314 240h132c11.31 0 17 0 20.49-3.51S470 227.32 470 216v-12c0-11.3 0-17-3.51-20.47S457.31 180 446 180h-21a30.17 30.17 0 01-5.34-.23 12 12 0 01-9.43-9.42A30.17 30.17 0 01410 165a30.17 30.17 0 01.23-5.34 12 12 0 019.43-9.42A30.17 30.17 0 01425 150h5c7.48 0 11.22 0 14-1.61a12 12 0 004.39-4.39c1.61-2.78 1.61-6.52 1.61-14v-20c0-7.47 0-11.21-1.61-14a12 12 0 00-4.39-4.33c-2.78-1.61-6.52-1.61-14-1.61h-5a30.17 30.17 0 01-5.34-.23 12 12 0 01-9.43-9.42 30.17 30.17 0 01-.23-5.34 30.17 30.17 0 01.23-5.34 12 12 0 019.43-9.42 28.93 28.93 0 015.34-.24h21c11.31 0 17 0 20.49-3.51S470 47.39 470 36.08z" fill-rule="evenodd"/></symbol><symbol viewBox="0 0 167 60" id="logo-note" xmlns="http://www.w3.org/2000/svg"><path d="M65.063 15.87c11.025 0 19.345 8.06 19.345 18.695s-8.32 18.7-19.345 18.7-19.34-8.06-19.34-18.7 8.32-18.695 19.34-18.695zm84.32.17c11.92 0 17.37 9.265 17.37 19.385.012.667-.011 1.335-.07 2a.648.648 0 01-.59.655h-24.345c1 4.395 3.86 7.035 8.75 7.035 2.955 0 5.38-.755 8.275-3.22a.644.644 0 01.88-.05l.065.05 4.715 4.245a.651.651 0 01.287.478.652.652 0 01-.197.522c-3.54 4.05-8.15 6.13-14.155 6.13-10.81 0-18.655-7.59-18.655-18.655 0-10.17 7.245-18.575 17.67-18.575zm-39.545-8.5a.627.627 0 01.65.413c.031.087.043.18.035.272v8.5h7.72a.631.631 0 01.685.69v7.205a.644.644 0 01-.182.503.637.637 0 01-.503.182h-7.72V40.87c0 2.36 1.055 3.5 3.13 3.5a8.763 8.763 0 004.335-.9c.47-.235.815-.085.815.385v6.735a.938.938 0 01-.475.855c-1.865 1.16-4.33 1.845-7.545 1.845-5.555 0-9.5-2-10.275-8.34a26.872 26.872 0 01-.105-2.78V25.305h-3.6a.637.637 0 01-.71-.685v-7.205a.635.635 0 01.69-.69h3.6v-8.5a.63.63 0 01.71-.675zm-89.245 8.33c6.45 0 10.61 3.625 11.77 9.69.237 1.367.344 2.753.32 4.14v22.025a.631.631 0 01-.685.685h-8.75a.63.63 0 01-.685-.685v-19.39c0-4.76-2.275-7.29-6.135-7.29s-6.305 2.5-6.305 7.29v19.39a.631.631 0 01-.685.685H.688a.635.635 0 01-.685-.685v-34.31a.635.635 0 01.685-.69h8.75a.63.63 0 01.685.69V21.5c3.37-4.5 7.295-5.63 10.47-5.63zm44.47 8.745c-5.745 0-9.35 4.635-9.35 9.95s3.605 9.935 9.35 9.935 9.35-4.635 9.35-9.955-3.6-9.93-9.35-9.93zm84.32-.47c-4.035 0-6.655 2.745-7.8 7.415l-.05.22h15.375c-.71-4.46-3.15-7.635-7.525-7.635z"/></symbol><symbol viewBox="0 0 181 60" id="logo-qiita" xmlns="http://www.w3.org/2000/svg"><clipPath><path d="M0 0h181v60H0z"/></clipPath><g clip-path="url(#a)"><path d="M70.886 16.75c2.877 0 5.21-2.326 5.21-5.195 0-2.87-2.333-5.195-5.21-5.195s-5.21 2.326-5.21 5.195c0 2.87 2.333 5.195 5.21 5.195zM120.723 3.89h-8.558v11.16h-5.761v8h5.761v16.1c0 3.147.401 5.723 1.203 7.73a11.739 11.739 0 003.264 4.74 11.482 11.482 0 004.849 2.38 20.34 20.34 0 005.239.645h6.433V47.03h-5.556a9.45 9.45 0 01-2.652-.36 5.344 5.344 0 01-2.196-1.255 6.074 6.074 0 01-1.504-2.44 11.62 11.62 0 01-.557-3.9v-16.03h12.565v-8h-12.535zM54.305 28.6a24.64 24.64 0 00-2.161-10.235 26.104 26.104 0 00-5.806-8.29A27.183 27.183 0 0037.694 4.5a27.739 27.739 0 00-10.559-2 27.694 27.694 0 00-10.59 2 27.083 27.083 0 00-8.603 5.575 26.354 26.354 0 00-5.801 8.29A24.642 24.642 0 000 28.6a24.567 24.567 0 002.14 10.205 26.614 26.614 0 005.802 8.31 27.512 27.512 0 0019.193 7.625c2.52.01 5.028-.317 7.46-.97a27.51 27.51 0 006.689-2.815l5.224 5.255a4.37 4.37 0 003.118 1.388 4.383 4.383 0 003.167-1.27 4.358 4.358 0 001.286-3.154 4.349 4.349 0 00-1.378-3.114l-4.703-4.695a26.516 26.516 0 004.647-7.68 24.6 24.6 0 001.66-9.085zm-10.584 7.225a17.997 17.997 0 01-3.83 5.775 17.917 17.917 0 01-12.755 5.24 17.591 17.591 0 01-6.99-1.4 17.923 17.923 0 01-5.696-3.84 18.738 18.738 0 01-4.937-9.51 18.707 18.707 0 011.086-10.655c.901-2.16 2.208-4.126 3.85-5.795a18.087 18.087 0 015.697-3.84 17.59 17.59 0 016.989-1.395c2.41-.015 4.799.46 7.02 1.395 2.146.9 4.093 2.214 5.728 3.868a17.59 17.59 0 013.798 5.767 18.39 18.39 0 011.444 7.205 18.256 18.256 0 01-1.404 7.185zM173.61 17.32l-.502 4a18.74 18.74 0 00-2.421-1.96 16.784 16.784 0 00-3.009-1.625 20.15 20.15 0 00-3.464-1.09 17.957 17.957 0 00-3.931-.41 20.32 20.32 0 00-7.977 1.5 18.702 18.702 0 00-6.157 4.13A18.229 18.229 0 00142.203 28a20.056 20.056 0 00-1.399 7.5 19.801 19.801 0 001.419 7.5 18.595 18.595 0 003.961 6.12 18.276 18.276 0 006.142 4.115 20.407 20.407 0 007.942 1.5c1.314.006 2.625-.13 3.911-.405a19.95 19.95 0 003.469-1.095 18.296 18.296 0 003.008-1.61 17.29 17.29 0 002.477-1.975l.502 4h7.36V17.32zm-1.77 22.955a11.653 11.653 0 01-2.507 3.745 11.25 11.25 0 01-3.7 2.435 12.453 12.453 0 01-9.096 0 11.24 11.24 0 01-6.227-6.195 12.966 12.966 0 010-9.565A11.44 11.44 0 01152.782 27a11.103 11.103 0 013.7-2.435 11.925 11.925 0 014.568-.865 11.741 11.741 0 018.278 3.3 11.23 11.23 0 012.507 3.725 11.96 11.96 0 01.922 4.745 12.16 12.16 0 01-.917 4.805zM75.082 22.565H66.69v31.11h8.393zM95.975 22.565h-8.393v31.11h8.393zM96.592 13.542a5.19 5.19 0 00-2.82-6.788 5.214 5.214 0 00-6.806 2.812 5.19 5.19 0 002.82 6.787 5.214 5.214 0 006.806-2.811z"/></g></symbol><symbol viewBox="0 0 342 120" id="logo-zenn" xmlns="http://www.w3.org/2000/svg"><path d="M159 77.29h-49.29a19.75 19.75 0 006.06 11.62 18.29 18.29 0 0012.38 4.29 24.49 24.49 0 0010.35-2.15 21 21 0 008.21-6.31l10.35 12a31.67 31.67 0 01-12 10 40.91 40.91 0 01-18.55 4 41.72 41.72 0 01-20.84-5 34.6 34.6 0 01-13.51-13.8 38.56 38.56 0 01-4.67-19.07V70.1a47.7 47.7 0 014.42-20.84A33.27 33.27 0 01104.66 35a37 37 0 0119.57-5.18A36.58 36.58 0 01143 34.49a30.85 30.85 0 0111.87 13.26 48.66 48.66 0 014 20.33zM137.62 61a14.49 14.49 0 00-3.54-10c-2.27-2.4-5.55-3.66-10-3.66a12.66 12.66 0 00-9.72 4 21.92 21.92 0 00-4.55 11.36h27.78zM26.77 91.31h45.57v18.56H.51V96.48L45.7 27.93H0V9.24h71.46v13.13zM178.9 69.59c0-24.11 16-36.86 35.6-36.86s35.23 12.75 35.23 36.86v39.52h-20.2V70.48c0-13.39-6.06-20.33-15.15-20.33s-15.66 6.94-15.66 20.33v38.75h-19.95zM269.17 69.59c0-24.11 16-36.86 35.61-36.86S340 45.48 340 69.59v39.52h-20.2V70.48c0-13.39-6.06-20.33-15.15-20.33S289 57.09 289 70.48v38.75h-19.95z"/></symbol><symbol viewBox="0 0 24 24" id="me" xmlns="http://www.w3.org/2000/svg"><g><path d="M15.6 15c2-1.2 3.4-3.5 3.4-6 0-3.9-3.1-7-7-7S5 5.1 5 9c0 2.5 1.4 4.8 3.4 6-2 1.2-3.4 3.5-3.4 6 0 .6.4 1 1 1h12c.6 0 1-.4 1-1 0-2.5-1.4-4.8-3.4-6zM7 9c0-2.8 2.2-5 5-5s5 2.2 5 5-2.2 5-5 5-5-2.2-5-5zm.1 11c.5-2.3 2.5-4 4.9-4s4.4 1.7 4.9 4z"/><circle cx="10" cy="9" r="1"/><circle cx="14" cy="9" r="1"/></g></symbol><symbol viewBox="0 0 24 24" id="menu" xmlns="http://www.w3.org/2000/svg"><path d="M4 18h16c.55 0 1-.45 1-1s-.45-1-1-1H4c-.55 0-1 .45-1 1s.45 1 1 1zm0-5h16c.55 0 1-.45 1-1s-.45-1-1-1H4c-.55 0-1 .45-1 1s.45 1 1 1zM3 7c0 .55.45 1 1 1h16c.55 0 1-.45 1-1s-.45-1-1-1H4c-.55 0-1 .45-1 1z"/></symbol><symbol viewBox="0 0 24 24" id="more" xmlns="http://www.w3.org/2000/svg"><path d="M15.88 9.29L12 13.17 8.12 9.29a1 1 0 10-1.41 1.41l4.59 4.59a1 1 0 001.41 0l4.59-4.59a1 1 0 10-1.42-1.41z"/></symbol><symbol viewBox="0 0 24 24" id="next" xmlns="http://www.w3.org/2000/svg"><path d="M9.29 6.71a1 1 0 000 1.41L13.17 12l-3.88 3.88a1 1 0 101.41 1.41l4.59-4.59a1 1 0 000-1.41L10.7 6.7a1 1 0 00-1.41.01z"/></symbol><symbol viewBox="0 0 24 24" id="note" xmlns="http://www.w3.org/2000/svg"><path d="M6.33 18.72h11.36V5.28H9.48a.33.33 0 00-.21.11c-1 1-1.92 2.09-2.87 3.13a.41.41 0 00-.09.26zM18.81 3A1.15 1.15 0 0120 4.11v15.75A1.14 1.14 0 0118.86 21H5.19a1.15 1.15 0 01-1.14-1.14V8.36a1.51 1.51 0 01.45-1.14l3.42-3.74A1.37 1.37 0 019 3zM8.59 10.92a.92.92 0 01-.82-1 .93.93 0 01.82-.82h1.54V7.53a.92.92 0 111.84 0V10a.93.93 0 01-.92.91H8.59z"/></symbol><symbol viewBox="0 0 24 24" id="open" xmlns="http://www.w3.org/2000/svg"><path d="M18.83 5.17C17.66 4 15.77 4 12 4S6.34 4 5.17 5.17 4 8.23 4 12s0 5.66 1.17 6.83S8.23 20 12 20s5.66 0 6.83-1.17S20 15.77 20 12s0-5.66-1.17-6.83zm-1 11c-.12.87-.3 1.14-.46 1.29s-.42.34-1.29.46A33.78 33.78 0 0112 18a33.78 33.78 0 01-4.12-.13c-.87-.12-1.14-.3-1.29-.46s-.34-.42-.46-1.29A33.78 33.78 0 016 12a33.78 33.78 0 01.13-4.12c.12-.87.3-1.14.46-1.29s.41-.34 1.29-.46A33.78 33.78 0 0112 6a33.78 33.78 0 014.12.13c.87.12 1.14.3 1.29.46s.34.42.46 1.29A33.78 33.78 0 0118 12a33.78 33.78 0 01-.13 4.12z"/><path d="M15.38 8.08A1 1 0 0015 8h-5a1 1 0 000 2h2.59l-4.3 4.29a1 1 0 000 1.42 1 1 0 001.42 0l4.29-4.3V14a1 1 0 002 0V9a1 1 0 00-.08-.38 1 1 0 00-.54-.54z"/></symbol><symbol viewBox="0 0 24 24" id="pinterest" xmlns="http://www.w3.org/2000/svg"><path d="M12 2a10 10 0 00-3.64 19.3 9.86 9.86 0 010-2.87c.18-.78 1.17-5 1.17-5A3.66 3.66 0 019.27 12c0-1.39.8-2.42 1.81-2.42a1.25 1.25 0 011.28 1.24c.005.06.005.12 0 .18a19.107 19.107 0 01-.84 3.33 1.458 1.458 0 001.12 1.74c.123.015.247.015.37 0 1.78 0 3.14-1.87 3.14-4.57a3.94 3.94 0 00-3.81-4.06H12a4.32 4.32 0 00-4.55 4.09 1.93 1.93 0 000 .24c0 .82.259 1.617.74 2.28a.31.31 0 01.06.29c-.07.31-.24 1-.28 1.13a.21.21 0 01-.33.13c-1.26-.58-2-2.4-2-3.87 0-3.15 2.29-6 6.62-6a5.86 5.86 0 016.16 5.56c.005.07.005.14 0 .21 0 3.45-2.18 6.22-5.19 6.22a2.671 2.671 0 01-2.29-1.15s-.51 1.9-.63 2.37A10.87 10.87 0 019 21.56c.973.292 1.984.44 3 .44a10 10 0 000-20z"/></symbol><symbol viewBox="0 0 24 24" id="pixiv" xmlns="http://www.w3.org/2000/svg"><path d="M19 5.68a8.35 8.35 0 00-5.8-1.95C7.13 3.73 3 8.45 3 8.45l1.14 1.84s.63.1.32-1A8.28 8.28 0 016.4 7.1v12.34c-.52.11-1.15.42-.73.84H9c.41-.42-.21-.73-.73-.84v-3a18.67 18.67 0 004.73 1 9.22 9.22 0 005.66-1.84A6 6 0 0021 10.74a5.811 5.811 0 00-2-5.06zm-1.83 8.84a6.31 6.31 0 01-4.24 1.63 11.43 11.43 0 01-4.54-.94V6a9 9 0 014.54-1.36 5.7 5.7 0 014.24 1.74 6.22 6.22 0 011.56 4.13 5 5 0 01-1.61 4z"/></symbol><symbol viewBox="0 0 24 24" id="pocket" xmlns="http://www.w3.org/2000/svg"><path d="M4.57 3.9A1.5 1.5 0 003 5.52v6c0 4.85 4.82 8.65 9 8.62 4.69 0 9-4 9-8.62v-6a1.528 1.528 0 00-1.62-1.62zm3.8 4.85L12 12.18l3.6-3.43c1.62-.68 2.33 1.17 1.66 1.71L12.55 15a1.57 1.57 0 01-1.13 0l-4.71-4.5c-.64-.64.19-2.5 1.66-1.75z"/></symbol><symbol viewBox="0 0 24 24" id="prev" xmlns="http://www.w3.org/2000/svg"><path d="M14.71 6.71a1 1 0 00-1.41 0L8.71 11.3a1 1 0 000 1.41l4.59 4.59a1 1 0 001.41-1.41L10.83 12l3.88-3.88a1 1 0 000-1.41z"/></symbol><symbol viewBox="0 0 24 24" id="rss" xmlns="http://www.w3.org/2000/svg"><g><path d="M6.24 20a2.24 2.24 0 100-4.48 2.24 2.24 0 000 4.48z"/><path d="M4 4v2.91A13.09 13.09 0 0117.09 20H20A16 16 0 004 4zm0 5.82v2.91A7.28 7.28 0 0111.27 20h2.91A10.18 10.18 0 004 9.82z"/></g></symbol><symbol viewBox="0 0 24 24" id="search" xmlns="http://www.w3.org/2000/svg"><path d="M14.55 13.05l-.12.68a6.52 6.52 0 10-.7.7h-.79l5.31 5.31a1.055 1.055 0 001.718-1.148 1.055 1.055 0 00-.228-.342zM9.5 14A4.5 4.5 0 1114 9.5 4.49 4.49 0 019.5 14z"/></symbol><symbol viewBox="0 0 24 24" id="twitter" xmlns="http://www.w3.org/2000/svg"><path d="M8.3 20.13A11.6 11.6 0 0020 8.63v-.7a8.11 8.11 0 002-2.13 8.07 8.07 0 01-2.37.63 4 4 0 001.8-2.26 8.65 8.65 0 01-2.6 1A4.09 4.09 0 0013 5a4.15 4.15 0 00-1.2 3.93A11.58 11.58 0 013.4 4.6a4.12 4.12 0 001.27 5.5 4.53 4.53 0 01-1.87-.5v.07a4.1 4.1 0 003.3 4c-.609.17-1.25.195-1.87.07a4.1 4.1 0 003.84 2.86A8.29 8.29 0 013 18.33c-.334.01-.67-.01-1-.06a11.44 11.44 0 006.3 1.86"/></symbol></svg>