<svg id="e5c62c8d-9b6a-4ba1-903c-9f1af3d9f59f" data-name="base" xmlns="http://www.w3.org/2000/svg" width="320" height="160"><defs><style>.bd7f9e22-de77-41c2-a201-9d4470bcb437{fill:#fc6}.bc080d28-a91b-4653-bb00-c5d692a509b3{fill:#9da3a5;stroke-width:2px}.b8675dfb-29d6-495b-b53a-7eb0690192be,.bc080d28-a91b-4653-bb00-c5d692a509b3{stroke:#444;stroke-linecap:round;stroke-linejoin:round}.b8675dfb-29d6-495b-b53a-7eb0690192be{fill:none;stroke-width:3px}</style></defs><path class="bd7f9e22-de77-41c2-a201-9d4470bcb437" d="M73 63v50h11v24H73v20H46v-20H8v-21l33-53zm-27 50V96h-1l-10 17zM296 63v50h11v24h-11v20h-27v-20h-38v-21l33-53zm-27 50V96l-11 17z"/><g><path class="bc080d28-a91b-4653-bb00-c5d692a509b3" d="M172 55a3 3 0 01-2-6 40 40 0 0018-41 3 3 0 017-2 47 47 0 01-21 49 3 3 0 01-2 0zM122 127c-3 1-8 1-11-5-5-8-8-24-4-32l9 2M99 98l-4 3M97 104l5-5M101 105l4-4"/><path class="bd7f9e22-de77-41c2-a201-9d4470bcb437" d="M207 83a51 51 0 10-20 69 51 51 0 0020-69zm-34 44a22 22 0 118-30 22 22 0 01-8 30z"/><path class="bc080d28-a91b-4653-bb00-c5d692a509b3" d="M168 73c-18 2-29 23-25 40 1 6-1 9-4 10s-8 0-10-6c-3-8-3-25 2-33l-5-23c10-13 33-17 47-13a35 35 0 0122 18c2 4 4 3 6 1a4 4 0 016 3v12c1 4 4 10 2 15-3 4-10 3-11-1-1-5 4-11 2-16-1-2-5 5-17 5-11 1-16-8-15-16M103 73c-4-4-10-7-12-6-3 2 1 17 6 22s13-9 13-9"/><path class="bc080d28-a91b-4653-bb00-c5d692a509b3" d="M101 73c2-3 7-7 13-7 9-1-5 18-5 18"/><path class="bc080d28-a91b-4653-bb00-c5d692a509b3" d="M111 71c2-9 6-20 9-20s10 14 11 19c5 5 8 26-14 33-14 4-21-7-20-18M132 80l6-4M132 83l9-2M133 87l7-1"/><path class="b8675dfb-29d6-495b-b53a-7eb0690192be" d="M120 93c0-3 3-9 8-10M100 96c2-1 7-1 9 1"/><animateTransform attributeName="transform" attributeType="XML" type="rotate" values="0 162 140;10 162 140;0 162 140" calcMode="spline" keySplines=".5 0 .5 1;.5 0 .5 1" begin="0" dur="1.5s" repeatCount="indefinite"/></g></svg>
