<svg enable-background="new 0 0 336 48" viewBox="0 0 336 48" xmlns="http://www.w3.org/2000/svg"><g fill="#fff"><path d="m122.5 24.7c-.8-.9-2.1-1.5-3.3-1.5 1-.2 2-.7 2.7-1.6.6-.7.9-1.7.8-2.7 0-.8-.2-1.6-.5-2.4-.4-.7-1-1.3-1.6-1.6-.7-.4-1.5-.6-2.3-.7-1.6-.2-3.1-.3-4.8-.2h-5.5v20h5.7c1.6 0 3.3 0 4.9-.2.9-.1 1.7-.4 2.6-.7.8-.5 1.5-1.1 1.9-1.8.5-.8.7-1.8.6-2.8.1-1.5-.4-2.8-1.2-3.8zm-9.5-6.3h1.2c.9-.1 1.9.1 2.7.5.5.4.7 1 .7 1.6.1.6-.3 1.2-.7 1.6-.8.4-1.8.5-2.7.5h-1.1zm4.7 11.5c-.8.4-1.8.5-2.7.5h-2v-4.4h2c.9-.1 1.9.1 2.7.5.5.5.8 1.1.7 1.7.2.7 0 1.4-.7 1.7z"/><path d="m129.4 28.9c-1.4 0-2.6 1.1-2.6 2.6 0 1.4 1.1 2.6 2.6 2.6s2.6-1.1 2.6-2.6-1.1-2.6-2.6-2.6z"/><path d="m127.2 14h4.4v13.3h-4.4z"/><path d="m18.8 35.5c10.7 0 16.5-8.9 16.5-16.5 0-.2 0-.5 0-.8 1.1-.8 2.1-1.8 2.9-3-1.1.5-2.2.8-3.3.9 1.2-.7 2.1-1.9 2.5-3.2-1.1.7-2.4 1.2-3.7 1.4-2.2-2.3-5.9-2.5-8.2-.3-1.5 1.4-2.2 3.6-1.7 5.6-4.7-.2-9-2.4-12-6.1-1.5 2.7-.8 6 1.8 7.8-.9 0-1.8-.3-2.6-.7v.1c0 2.8 2 5.1 4.7 5.7-.9.2-1.8.3-2.6.1.8 2.4 3 4 5.4 4-2.1 1.6-4.6 2.5-7.2 2.5-.5 0-.9 0-1.4-.1 2.6 1.7 5.7 2.6 8.9 2.6"/><path d="m158.4 13.5c-1.1 0-2 .9-2 2v.1 7.7c0 6.3 6.2 11.2 11.6 11.2 6.1 0 11.7-5.2 11.7-11.2v-7.7c.1-1.1-.8-2-1.9-2.1-.1 0-.1 0-.2 0zm4.9 6.3 4.7 4.4 4.7-4.4c2.1-.9 3 1.5 2.1 2.2l-6.1 5.8c-.5.2-1 .2-1.5 0l-6.1-5.8c-.8-.8.3-3.2 2.2-2.2z"/><path d="m229.5 22.4c0-6.1-6.1-11.1-13.6-11.1s-13.6 5-13.6 11.1c0 5.5 4.8 10.1 11.4 10.9.5.1 1 .3 1.2.7.2.3.1.9.1 1.2 0 0-.2.9-.2 1.2-.1.3-.3 1.3 1.2.7s7.9-4.6 10.7-7.9c1.9-2.2 2.8-4.3 2.8-6.8zm-18.4 3.3c0 .2-.2.2-.2.2h-3.8c-.1 0-.2 0-.2-.1-.1-.1-.1-.1-.1-.2v-5.9c0-.2.2-.2.2-.2h.9c.2 0 .2.2.2.2v4.7h2.6c.2 0 .2.2.2.2zm2.3 0c0 .2-.2.2-.2.2h-.9c-.2 0-.2-.2-.2-.2v-5.9c0-.2.2-.2.2-.2h.9c.2 0 .2.2.2.2zm6.6 0c0 .2-.2.2-.2.2h-.9-.1s-.1 0-.1-.1l-2.7-3.7v3.5c0 .2-.2.2-.2.2h-.9c-.2 0-.2-.2-.2-.2v-5.9c0-.2.2-.2.2-.2h.9l2.7 3.7v-3.5c0-.2.2-.2.2-.2h.9c.2 0 .2.2.2.2v6zm5.3-5c0 .2-.2.2-.2.2h-2.6v1h2.6c.2 0 .2.2.2.2v.9c0 .2-.2.2-.2.2h-2.6v1h2.6c.2 0 .2.2.2.2v.9c0 .2-.2.2-.2.2h-3.8c-.1 0-.2 0-.2-.1-.1-.1-.1-.1-.1-.2v-5.9c0-.1 0-.2.1-.2.1-.1.1-.1.2-.1h3.8c.2 0 .2.2.2.2z"/><path d="m86 24.1c0-7.7-6.3-14-14-14s-14 6.3-14 14c0 7 5.1 12.8 11.8 13.8v-9.8h-3.6v-4h3.6v-3.1c0-3.5 2.1-5.4 5.3-5.4 1.5 0 3.1.3 3.1.3v3.4h-1.8c-1.7 0-2.3 1.1-2.3 2.2v2.6h3.9l-.6 4h-3.3v9.8c6.8-1.1 11.9-6.8 11.9-13.8z"/><circle cx="255.7" cy="32.3" r="3.2"/><path d="m252.5 12.5v4.2c10.4 0 18.8 8.4 18.8 18.8h4.2c0-12.7-10.3-23-23-23zm0 8.4v4.1c5.8 0 10.5 4.7 10.5 10.5h4.2c-.1-8.1-6.6-14.6-14.7-14.6z"/><path d="m312.3 30.2 1.6 1.6c.2.2.2.5 0 .6l-1.2 1.2c-.1.1-.2.1-.2.1h-1s-.1 0-.2-.1l-1.2-1.2c-.2-.2-.2-.5 0-.6l1.6-1.6c.1-.2.4-.2.6 0zm0-6.5 1.6 1.6c.2.2.2.5 0 .6l-4.5 4.4c-.1.1-.2.1-.2.1h-1s-.1 0-.2-.1l-1.2-1.2c-.2-.2-.2-.5 0-.6l4.9-4.8c.2-.2.4-.2.6 0zm0-6.5 1.6 1.6c.2.2.2.5 0 .6l-7.7 7.7c-.1.1-.2.1-.2.1h-1s-.1 0-.2-.1l-1.2-1.2c-.2-.2-.2-.5 0-.6l8.1-8.1c.2-.2.4-.2.6 0zm2-4.6c-1.3-1.3-3.3-1.3-4.6 0l-10.7 10.7c-1.3 1.3-1.3 3.3 0 4.6l7.7 7.7c.3.3 1.1.7 1.7.7h7.1c.4 0 1.4-.3 1.8-.8l7.7-7.7c1.3-1.3 1.3-3.3 0-4.6z"/></g></svg>