<svg fill="none" height="120" viewBox="0 0 480 120" width="480" xmlns="http://www.w3.org/2000/svg"><path clip-rule="evenodd" d="m60 120 20-40 40 40v-120h-120zm360-120-60 120h120zm-76.5 107.725c5.035-5.565 7.5-12.815 7.5-21.815 0-6.935-1.565-12.955-4.7-18.185-3.365-5.68-9.865-9.545-19.365-11.59 4.25-2.5 7.4-5.59 9.4-9.09 2.35-4.205 3.585-9.43 3.585-15.795 0-20.795-11.085-31.25-33.25-31.25h-45.67v120h49.255c14.89 0 25.972-4.092 33.245-12.275zm-108-107.725h-30-60v30 15 30 15 30h60 30v-30h-30v-15h20v-30h-20v-15h30z" fill="#fff" fill-rule="evenodd"/></svg>