<svg fill="none" height="24" viewBox="0 0 24 24" width="24" xmlns="http://www.w3.org/2000/svg"><path d="m18.3 5.71c-.1874-.18625-.4408-.29079-.705-.29079s-.5176.10454-.705.29079l-4.89 4.88-4.89001-4.89c-.1913-.16383-.43738-.24943-.68905-.23971-.25168.00972-.49042.11405-.66851.29215-.1781.17809-.28243.41683-.29215.66851-.00972.25167.07588.49775.23971.68905l4.89001 4.89-4.89001 4.89c-.16383.1913-.24943.4374-.23971.6891.00972.2516.11405.4904.29215.6685.17809.1781.41683.2824.66851.2921.25167.0097.49775-.0759.68905-.2397l4.89001-4.89 4.89 4.89c.1913.1638.4374.2494.689.2397.2517-.0097.4905-.114.6686-.2921.178-.1781.2824-.4169.2921-.6685.0097-.2517-.0759-.4978-.2397-.6891l-4.89-4.89 4.89-4.89c.1832-.18693.2858-.43825.2858-.7s-.1026-.51307-.2858-.7z" fill="#fff"/></svg>