<svg fill="none" height="24" viewBox="0 0 24 24" width="24" xmlns="http://www.w3.org/2000/svg"><path d="m8.69998 15.9-3.9-3.9 3.9-3.9c.14443-.19257.21455-.43078.19749-.67089-.01707-.24011-.12017-.46601-.29038-.63622s-.39611-.27331-.63622-.29037c-.24011-.01707-.47832.05305-.67089.19748l-4.59 4.59c-.18625.1874-.29079.4408-.29079.705s.10454.5176.29079.705l4.59 4.6c.08597.1146.19555.2094.32135.278.12579.0686.26485.1093.40776.1195.14291.0101.28634-.0105.42057-.0606.13422-.0501.25612-.1285.35743-.2298s.17966-.2232.22976-.3574c.0501-.1343.07077-.2777.06062-.4206-.01016-.1429-.05091-.282-.11948-.4078-.06858-.1257-.16339-.2353-.27801-.3213zm6.60002 0 3.9-3.9-3.9-3.9c-.1444-.19257-.2146-.43078-.1975-.67089s.1202-.46601.2904-.63622.3961-.27331.6362-.29037c.2401-.01707.4783.05305.6709.19748l4.59 4.59c.1862.1874.2908.4408.2908.705s-.1046.5176-.2908.705l-4.59 4.6c-.086.1146-.1956.2094-.3214.278s-.2648.1093-.4077.1195c-.1429.0101-.2864-.0105-.4206-.0606s-.2561-.1285-.3574-.2298-.1797-.2232-.2298-.3574c-.0501-.1343-.0708-.2777-.0606-.4206s.0509-.282.1195-.4078c.0686-.1257.1634-.2353.278-.3213z" fill="#fff"/></svg>