<svg fill="none" height="24" viewBox="0 0 24 24" width="24" xmlns="http://www.w3.org/2000/svg"><path clip-rule="evenodd" d="m4.60711 6.60711c.23832-.23832.57302-.4079 1.26755-.50406.72804-.10081 1.69647-.10305 3.12534-.10305h6c1.4289 0 2.3973.00224 3.1253.10305.6946.09616 1.0293.26574 1.2676.50406.2383.23831.4079.57302.5041 1.26754.0239.17305.0423.35967.0564.56282l-7.9534 4.41853-7.95342-4.41852c.01412-.20316.03251-.38978.05647-.56283.09617-.69452.26574-1.02923.50406-1.26754zm-2.58102 2.1648c-.03051.13-.03403.26295-.01273.39123-.01339.53571-.01338 1.12396-.01336 1.76516v2.1434c-.00004 1.3389-.00007 2.4467.12195 3.328.12884.9304.40926 1.7457 1.07095 2.4074.66168.6617 1.47698.9421 2.40745 1.0709.88126.1221 1.98902.122 3.32792.122h.00003 6.1434c1.3389 0 2.4467.0001 3.328-.122.9304-.1288 1.7457-.4092 2.4074-1.0709s.9421-1.477 1.071-2.4074c.122-.8813.1219-1.9891.1219-3.328v-2.1434c0-.6412 0-1.22948-.0134-1.7652.0213-.12826.0178-.26117-.0127-.39115-.0175-.42726-.0468-.8177-.0958-1.1716-.1289-.93048-.4093-1.74577-1.071-2.40746-.6617-.66168-1.477-.94211-2.4074-1.07094-.8813-.12202-1.9891-.12199-3.328-.12195h-6.1434-.00003c-1.33891-.00004-2.44666-.00007-3.32792.12195-.93047.12883-1.74577.40926-2.40745 1.07094-.66169.66169-.94211 1.47698-1.07095 2.40746-.049.35389-.07832.74432-.09586 1.17156zm17.97381 1.92769c.0001.0978.0001.1979.0001.3004v2c0 1.4289-.0022 2.3973-.103 3.1253-.0962.6946-.2658 1.0293-.5041 1.2676s-.573.4079-1.2676.5041c-.728.1008-1.6964.103-3.1253.103h-6c-1.42887 0-2.3973-.0022-3.12534-.103-.69453-.0962-1.02923-.2658-1.26755-.5041s-.40789-.573-.50406-1.2676c-.1008-.728-.10305-1.6964-.10305-3.1253v-2c0-.1025.00001-.2026.00007-.3004l7.51433 4.1746c.302.1677.6692.1677.9712 0z" fill="#fff" fill-rule="evenodd"/></svg>