<svg fill="none" height="24" viewBox="0 0 24 24" width="24" xmlns="http://www.w3.org/2000/svg"><path d="m11.29 8.71-4.58999 4.59c-.10468.0896-.1897.2-.24973.324-.06002.1241-.09375.2592-.09907.3969-.00532.1378.01789.2751.06816.4034s.12653.2449.22399.3424c.09745.0974.214.1737.34232.2239.12833.0503.26566.0735.40338.0682s.27285-.0391.39692-.0991c.12406-.06.23438-.145.32403-.2497l3.88999-3.88 3.88 3.88c.0897.1047.2.1897.324.2497.1241.06.2592.0938.397.0991.1377.0053.275-.0179.4033-.0682.1284-.0502.2449-.1265.3424-.2239.0974-.0975.1737-.2141.2239-.3424.0503-.1283.0735-.2656.0682-.4034-.0053-.1377-.039-.2728-.0991-.3969-.06-.124-.145-.2344-.2497-.324l-4.59-4.59c-.1874-.18625-.4408-.29079-.705-.29079s-.5176.10454-.705.29079z" fill="#fff"/></svg>