<svg fill="none" height="24" viewBox="0 0 24 24" width="24" xmlns="http://www.w3.org/2000/svg"><path d="m17 7h-3c-.2652 0-.5196.10536-.7071.29289-.1875.18754-.2929.44189-.2929.70711s.1054.51957.2929.70711c.1875.18753.4419.29289.7071.29289h3c.7956 0 1.5587.31607 2.1213.87868.5626.56262.8787 1.32572.8787 2.12132s-.3161 1.5587-.8787 2.1213-1.3257.8787-2.1213.8787h-3c-.2652 0-.5196.1054-.7071.2929s-.2929.4419-.2929.7071.1054.5196.2929.7071.4419.2929.7071.2929h3c1.3261 0 2.5979-.5268 3.5355-1.4645.9377-.9376 1.4645-2.2094 1.4645-3.5355s-.5268-2.59785-1.4645-3.53553c-.9376-.93769-2.2094-1.46447-3.5355-1.46447zm-9 5c0 .2652.10536.5196.29289.7071.18754.1875.44189.2929.70711.2929h6c.2652 0 .5196-.1054.7071-.2929s.2929-.4419.2929-.7071-.1054-.5196-.2929-.7071-.4419-.2929-.7071-.2929h-6c-.26522 0-.51957.1054-.70711.2929-.18753.1875-.29289.4419-.29289.7071zm2 3h-3c-.79565 0-1.55871-.3161-2.12132-.8787s-.87868-1.3257-.87868-2.1213.31607-1.5587.87868-2.12132c.56261-.56261 1.32567-.87868 2.12132-.87868h3c.2652 0 .5196-.10536.7071-.29289.1875-.18754.2929-.44189.2929-.70711s-.1054-.51957-.2929-.70711c-.1875-.18753-.4419-.29289-.7071-.29289h-3c-1.32608 0-2.59785.52678-3.53553 1.46447-.93769.93768-1.46447 2.20943-1.46447 3.53553s.52678 2.5979 1.46447 3.5355c.93768.9377 2.20945 1.4645 3.53553 1.4645h3c.2652 0 .5196-.1054.7071-.2929s.2929-.4419.2929-.7071-.1054-.5196-.2929-.7071-.4419-.2929-.7071-.2929z" fill="#fff"/></svg>