<svg fill="none" height="24" viewBox="0 0 24 24" width="24" xmlns="http://www.w3.org/2000/svg"><path d="m14.55 13.05-.12.68c1.0984-1.2795 1.6584-2.9348 1.5624-4.61842-.0961-1.68359-.8407-3.26449-2.0776-4.41075-1.2368-1.14626-2.8697-1.76872-4.5557-1.73669-1.68603.03204-3.29407.71608-4.48648 1.90849-1.19242 1.19242-1.87646 2.80046-1.90849 4.48648-.03203 1.68599.59043 3.31889 1.73669 4.55579 1.14626 1.2368 2.72715 1.9814 4.41075 2.0775 1.68363.096 3.33893-.4639 4.61843-1.5624h-.79l5.31 5.31c.0978.0978.214.1754.3418.2284.1278.0529.2648.0802.4032.0802.1383 0 .2753-.0273.4032-.0802.1278-.053.2439-.1306.3418-.2284.0978-.0978.1754-.214.2284-.3418.0529-.1278.0802-.2648.0802-.4032s-.0273-.2754-.0802-.4032c-.053-.1278-.1306-.244-.2284-.3418zm-5.05002.95c-.89001 0-1.76004-.2639-2.50006-.7584s-1.3168-1.1973-1.65739-2.0195c-.3406-.8223-.42971-1.72709-.25608-2.60001.17363-.87291.60222-1.67473 1.23155-2.30407.62934-.62934 1.43116-1.05792 2.30408-1.23155.87291-.17364 1.77772-.08452 2.60002.25607.8222.3406 1.525.91737 2.0195 1.65739.4945.74003.7584 1.61005.7584 2.50007.0013.5913-.1142 1.1771-.3399 1.7236-.2257.5466-.5571 1.0432-.9752 1.4613s-.9147.7496-1.4613.9752c-.5465.2257-1.1323.3412-1.72362.3399z" fill="#fff"/></svg>