<svg fill="none" height="24" viewBox="0 0 24 24" width="24" xmlns="http://www.w3.org/2000/svg"><g fill="#fff"><path d="m18.39 20.8h-12.78001c-.26522 0-.51958-.1054-.70711-.2929-.18754-.1875-.29289-.4419-.29289-.7071v-15.6c0-.26522.10535-.51957.29289-.70711.18753-.18753.44189-.29289.70711-.29289h8.91001c.2045-.00362.4046.05958.57.18l3.91 2.69c.1325.09189.2407.21445.3156.35723s.1141.30155.1144.46277v12.91c.0001.1348-.027.2681-.0798.3922-.0527.124-.13.236-.2271.3294s-.2122.1662-.3381.2141c-.126.0478-.2604.0697-.395.0643zm-11.78001-2h10.78001v-11.39l-3.18-2.21h-7.60001z"/><path d="m14.84 10.22h-5.68003c-.26521 0-.51957-.1054-.7071-.29289-.18754-.18754-.2929-.44189-.2929-.70711s.10536-.51957.2929-.70711c.18753-.18753.44189-.29289.7071-.29289h5.68003c.2652 0 .5195.10536.7071.29289.1875.18754.2929.44189.2929.70711s-.1054.51957-.2929.70711c-.1876.18749-.4419.29289-.7071.29289z"/><path d="m14.84 13.39h-5.68003c-.26521 0-.51957-.1054-.7071-.2929-.18754-.1875-.2929-.4419-.2929-.7071s.10536-.5196.2929-.7071c.18753-.1875.44189-.2929.7071-.2929h5.68003c.2652 0 .5195.1054.7071.2929.1875.1875.2929.4419.2929.7071s-.1054.5196-.2929.7071c-.1876.1875-.4419.2929-.7071.2929z"/><path d="m12.4 16.57h-3.24003c-.26521 0-.51957-.1054-.7071-.2929-.18754-.1875-.2929-.4419-.2929-.7071s.10536-.5196.2929-.7071c.18753-.1875.44189-.2929.7071-.2929h3.24003c.2652 0 .5195.1054.7071.2929.1875.1875.2929.4419.2929.7071s-.1054.5196-.2929.7071c-.1876.1875-.4419.2929-.7071.2929z"/></g></svg>