<svg fill="none" height="24" viewBox="0 0 24 24" width="24" xmlns="http://www.w3.org/2000/svg"><g fill="#fff"><path d="m9.08998 7.5c.5799 0 1.05002-.4701 1.05002-1.05s-.47012-1.05-1.05002-1.05-1.05.4701-1.05 1.05.4701 1.05 1.05 1.05z"/><path d="m13.48 7.5c.5799 0 1.05-.4701 1.05-1.05s-.4701-1.05-1.05-1.05-1.05.4701-1.05 1.05.4701 1.05 1.05 1.05z"/><path d="m11.28 15.32c-1.30691-.002-2.5839-.3913-3.6696-1.1188-1.08569-.7276-1.93135-1.7606-2.43011-2.9686-.49877-1.208-.62824-2.53671-.37206-3.81826.25617-1.28156.8865-2.45841 1.81132-3.38184.92483-.92342 2.10263-1.55197 3.38455-1.80621 1.282-.25424 2.6105-.12276 3.8177.37783 1.2073.50059 2.239 1.34781 2.9649 2.4346s1.1133 2.36437 1.1133 3.67128c-.0027 1.754-.7013 3.4353-1.9425 4.6746s-2.9235 1.9354-4.6775 1.9354zm0-11.22c-.9113.00198-1.80166.27403-2.55845.78178-.7568.50776-1.34612 1.22843-1.6935 2.07097-.34739.84254-.43726 1.76914-.25825 2.66273.179.89362.61885 1.71412 1.26397 2.35782.64511.6437 1.46655 1.0818 2.36053 1.2588.894.1771 1.8204.0852 2.6622-.264s1.5611-.9401 2.0673-1.698c.5061-.7579.7762-1.64875.7762-2.5601 0-.60623-.1196-1.20652-.3519-1.76648-.2323-.55997-.5727-1.06861-1.0019-1.49682-.4291-.42821-.9385-.76757-1.499-.99866-.5604-.23108-1.161-.34935-1.7672-.34804z"/><path d="m13.62 9.43c.0541.33454.0348.6768-.0564 1.0032s-.2522.6291-.4718.8871c-.2197.2581-.4928.4653-.8005.6075-.3076.1421-.6424.2157-.9813.2157s-.6738-.0736-.9814-.2157c-.3076-.1422-.58075-.3494-.80042-.6075-.21968-.258-.38068-.5607-.47188-.8871s-.11042-.66866-.05633-1.0032"/><path d="m17.28 21.9h-11.99997c-.26522 0-.51957-.1054-.70711-.2929-.18753-.1875-.29289-.4419-.29289-.7071 0-1.8565.7375-3.637 2.05025-4.9497 1.31276-1.3128 3.09323-2.0503 4.94972-2.0503 1.8565 0 3.637.7375 4.9498 2.0503 1.3127 1.3127 2.0502 3.0932 2.0502 4.9497 0 .2652-.1053.5196-.2929.7071-.1875.1875-.4419.2929-.7071.2929zm-10.88997-2h9.78997c-.2342-1.125-.8488-2.1349-1.7403-2.8599s-2.0056-1.1208-3.1547-1.1208-2.26309.3958-3.15461 1.1208-1.50611 1.7349-1.74036 2.8599z"/><path d="m4.89001 19.18c-1.20604-.0109-2.36475-.4709-3.25-1.29-.672855-.634-1.120064-1.4705-1.273512-2.3822-.153449-.9116-.004727-1.8485.423515-2.6678.110065-.2413.311497-.4291.559987-.5219.24848-.0928.52367-.0832.76501.0269.24135.1101.42909.3115.52192.56s.08315.5237-.02692.765c-.26001.4354-.36311.9467-.29216 1.4488.07095.5022.31169.9649.68216 1.3112.33816.333.76379.5633 1.22752.6642.46373.1008.94656.0682 1.39248-.0942.23472-.1247.50934-.151.76345-.0731.25411.0778.4669.2534.59155.4881.12466.2347.15096.5093.07313.7634-.07782.2542-.25341.4669-.48813.5916-.51494.2707-1.08824.4114-1.67.41z"/></g></svg>