<svg fill="none" height="24" viewBox="0 0 24 24" width="24" xmlns="http://www.w3.org/2000/svg"><g fill="#fff"><path d="m11.28 15.81c-1.30934 0-2.58925-.3883-3.6779-1.1157s-1.93715-1.7613-2.43821-2.9709c-.50105-1.2097-.63215-2.54074-.37671-3.8249.25543-1.28415.88593-2.46372 1.81175-3.38955.92582-.92582 2.10539-1.55632 3.38955-1.81175 1.28412-.25543 2.61522-.12434 3.82482.37672 1.2097.50105 2.2436 1.34955 2.971 2.4382.7274 1.08866 1.1157 2.36857 1.1157 3.67788-.0027 1.7549-.701 3.4372-1.9419 4.6781s-2.9232 1.9393-4.6781 1.9419zm0-11.23c-.9142 0-1.80782.27121-2.5678.77931-.75997.50809-1.35211 1.23023-1.7015 2.07501-.34938.84478-.44028 1.77422-.26121 2.67068.17908.8965.62009 1.7197 1.26721 2.3654.64711.6457 1.47125 1.0849 2.3681 1.262.8969.1772 1.8261.0843 2.6701-.267.844-.3512 1.5649-.9449 2.0713-1.7059.5065-.7611.7758-1.6553.7738-2.5695-.0027-1.22357-.4906-2.39612-1.3567-3.26037-.8662-.86426-2.0398-1.34963-3.2633-1.34963z"/><path d="m17.28 22.39h-11.99997c-.26522 0-.51957-.1054-.70711-.2929-.18753-.1875-.29289-.4419-.29289-.7071 0-1.8565.7375-3.637 2.05025-4.9497 1.31276-1.3128 3.09323-2.0503 4.94972-2.0503 1.8565 0 3.637.7375 4.9498 2.0503 1.3127 1.3127 2.0502 3.0932 2.0502 4.9497 0 .2652-.1053.5196-.2929.7071-.1875.1875-.4419.2929-.7071.2929zm-10.88997-2h9.78997c-.2342-1.125-.8488-2.1349-1.7403-2.8599s-2.0056-1.1208-3.1547-1.1208-2.26309.3958-3.15461 1.1208-1.50611 1.7349-1.74036 2.8599z"/><path d="m9.08998 10.38c.5799 0 1.05002-.4701 1.05002-1.05s-.47012-1.05-1.05002-1.05-1.05.4701-1.05 1.05.4701 1.05 1.05 1.05z"/><path d="m13.48 10.38c.5799 0 1.05-.4701 1.05-1.05s-.4701-1.05-1.05-1.05-1.05.4701-1.05 1.05.4701 1.05 1.05 1.05z"/></g></svg>