<svg fill="none" height="24" viewBox="0 0 24 24" width="24" xmlns="http://www.w3.org/2000/svg" xmlns:xlink="http://www.w3.org/1999/xlink"><clipPath id="a"><path d="m0 0h24v24h-24z"/></clipPath><g clip-path="url(#a)" fill="#fff"><path d="m11.84 23c-.1492.0013-.2966-.033-.43-.1l-8.16001-3.99c-.17017-.081-.31397-.2085-.41482-.3678-.10085-.1592-.15464-.3437-.15518-.5322v-10.24c-.00034-.16994.04264-.33717.12488-.48589.08223-.14873.20101-.27404.34512-.36411.15202-.08777.32447-.13397.5-.13397.17554 0 .34799.0462.5.13397l8.16001 3.94c.1683.0825.31.2106.4091.3697.099.1591.1513.3429.1509.5303v10.24c.0003.1699-.0426.3372-.1249.4859-.0822.1487-.201.274-.3451.3641-.1678.1042-.3626.1564-.56.15zm-7.16001-5.61 6.16001 3v-8l-6.16001-3z"/><path d="m11.84 23c-.1872.0006-.3708-.0514-.53-.15-.1441-.0901-.2629-.2154-.3451-.3641s-.1252-.316-.1249-.4859v-10.29c.0006-.1885.0544-.373.1552-.5322.1009-.1593.2447-.2867.4148-.3678l8.15-3.94c.152-.08777.3245-.13397.5-.13397.1756 0 .348.0462.5.13397.1441.09007.2629.21538.3452.36411.0822.14872.1252.31595.1248.48589v10.28c.0004.1874-.0519.3712-.1509.5303s-.2408.2872-.4091.3697l-8.16 3.94c-.1407.092-.3023.147-.47.16zm1-10.61v8l6.16-3v-8z"/><path d="m11.84 16.36c-.2652 0-.5196-.1054-.7071-.2929-.1876-.1875-.2929-.4419-.2929-.7071v-3l-4.30002-2.08c-.20522-.0987-.37061-.2645-.4688-.47-.09819-.20547-.12331-.43831-.0712-.66.30211-1.3256 1.04547-2.50929 2.10831-3.35715 1.06283-.84786 2.38211-1.30962 3.74171-1.30962s2.6789.46176 3.7417 1.30962 1.8062 2.03155 2.1083 3.35715c.0472.21876.0196.44702-.0783.64826s-.2605.36384-.4617.46174l-4.31 2.08v3c.0027.1338-.0215.2669-.0712.3912s-.1238.2373-.218.3325c-.0942.0951-.2066.1703-.3304.2212s-.2566.0765-.3904.0751zm-3.66002-7.53 3.66002 1.77 3.67-1.77c-.3116-.71271-.8243-1.3191-1.4752-1.74494-.651-.42583-1.412-.65263-2.1898-.65263-.7779 0-1.5389.2268-2.1898.65263-.65094.42584-1.1636 1.03223-1.47522 1.74494z"/><path d="m4.92 5.2c-.14595.00045-.28991-.03382-.42-.1l-3.21-1.5c-.23501-.11578-.415193-.31915-.501817-.56639s-.072767-.5186.038593-.75573c.111359-.23713.311324-.42109.556904-.51233.24558-.09123.51715-.08245.75632.02445l3.21 1.5c.20909.09519.37903.25947.48124.46522.10221.20574.13046.44041.08.66454-.05045.22412-.17655.42404-.35707.56614-.18052.14209-.40446.2177-.63417.2141z"/><path d="m11.21 3.7c-.2652 0-.5195-.10536-.7071-.29289-.1875-.18754-.2929-.44189-.2929-.70711v-2.2c0-.265216.1054-.5195704.2929-.707107.1876-.187536.4419-.292893.7071-.292893s.5196.105357.7071.292893c.1876.1875366.2929.441891.2929.707107v2.2c0 .26522-.1053.51957-.2929.70711-.1875.18753-.4419.29289-.7071.29289z"/><path d="m15.92 4.45c-.2256-.00131-.4441-.07884-.62-.22-.2061-.16499-.3385-.40477-.3685-.66703s.045-.52574.2085-.73297l1.45-1.83c.1644-.209519.4054-.345138.6698-.377019s.5307.042586.7402.207021c.2095.164434.3451.405368.377.669788.0319.26443-.0426.53069-.207.74021l-1.46 1.83c-.0942.11918-.2143.21534-.3511.28118-.1369.06585-.287.09964-.4389.09882z"/></g></svg>