<svg fill="none" height="24" viewBox="0 0 24 24" width="24" xmlns="http://www.w3.org/2000/svg"><g fill="#fff"><path d="m11.84 22.39c-.1492.0013-.2966-.033-.43-.1l-8.16001-3.94c-.17017-.081-.31397-.2085-.41482-.3678-.10085-.1592-.15464-.3437-.15518-.5322v-10.25c-.00034-.16994.04264-.33717.12487-.48589.08224-.14873.20102-.27404.34513-.36411.14412-.09007.30881-.14193.47853-.15068.16972-.00874.33886.02591.49147.10068l8.16001 4c.1683.0825.31.2106.4091.3697.099.1591.1513.3429.1509.5303v10.19c.0003.1699-.0426.3372-.1249.4859-.0822.1487-.201.274-.3451.3641-.1591.0986-.3428.1506-.53.15zm-7.16001-5.57 6.16001 3v-8l-6.16001-3z"/><path d="m11.84 22.39c-.1872.0006-.3708-.0514-.53-.15-.1441-.0901-.2629-.2154-.3451-.3641s-.1252-.316-.1249-.4859v-10.24c.0006-.1885.0544-.373.1552-.5322.1009-.1593.2447-.2867.4148-.3678l8.15-3.95c.1526-.07477.3218-.10942.4915-.10068.1697.00875.3344.06061.4785.15068s.2629.21538.3452.36411c.0822.14872.1252.31595.1248.48589v10.25c.0004.1874-.0519.3712-.1509.5303s-.2408.2872-.4091.3697l-8.16 3.94c-.1371.0664-.2876.1006-.44.1zm1-10.62v8l6.16-3v-8z"/><path d="m11.84 12.15c-.149-.0009-.2959-.035-.43-.1l-8.15998-4c-.17298-.08463-.31784-.21742-.41718-.38239-.09935-.16498-.14894-.35513-.14282-.54761.0057-.19513.06839-.38433.18034-.54426s.26826-.28359.44966-.35574l8.15998-3.21c.2347-.09199.4954-.09199.73 0l8.16 3.21c.1807.07121.3368.1935.4491.35192.1123.15843.1761.34615.1835.54022.0075.19408-.0418.38612-.1417.55266-.0999.16655-.2462.3004-.4209.3852l-8.16 4c-.1384.0626-.2881.0966-.44.1zm-5.65998-4.85 5.65998 2.7 5.67-2.7-5.67-2.23z"/></g></svg>