<?xml version="1.0" encoding="utf-8"?>
<!-- Generator: Adobe Illustrator 25.2.0, SVG Export Plug-In . SVG Version: 6.00 Build 0)  -->
<svg version="1.1" id="レイヤー_1" xmlns="http://www.w3.org/2000/svg" xmlns:xlink="http://www.w3.org/1999/xlink" x="0px"
	 y="0px" viewBox="0 0 432 48" style="enable-background:new 0 0 432 48;" xml:space="preserve">
<style type="text/css">
	.st0{fill:#FFFFFF;}
	.st1{fill-rule:evenodd;clip-rule:evenodd;fill:#FFFFFF;}
</style>
<g>
	<path class="st0" d="M122.5,24.7c-0.8-0.9-2.1-1.5-3.3-1.5c1-0.2,2-0.7,2.7-1.6c0.6-0.7,0.9-1.7,0.8-2.7c0-0.8-0.2-1.6-0.5-2.4
		c-0.4-0.7-1-1.3-1.6-1.6c-0.7-0.4-1.5-0.6-2.3-0.7c-1.6-0.2-3.1-0.3-4.8-0.2H108v20h5.7c1.6,0,3.3,0,4.9-0.2
		c0.9-0.1,1.7-0.4,2.6-0.7c0.8-0.5,1.5-1.1,1.9-1.8c0.5-0.8,0.7-1.8,0.6-2.8C123.8,27,123.3,25.7,122.5,24.7z M113,18.4h1.2
		c0.9-0.1,1.9,0.1,2.7,0.5c0.5,0.4,0.7,1,0.7,1.6c0.1,0.6-0.3,1.2-0.7,1.6c-0.8,0.4-1.8,0.5-2.7,0.5h-1.1L113,18.4L113,18.4z
		 M117.7,29.9c-0.8,0.4-1.8,0.5-2.7,0.5h-2V26h2c0.9-0.1,1.9,0.1,2.7,0.5c0.5,0.5,0.8,1.1,0.7,1.7C118.6,28.9,118.4,29.6,117.7,29.9
		L117.7,29.9z"/>
	<path class="st0" d="M129.4,28.9c-1.4,0-2.6,1.1-2.6,2.6c0,1.4,1.1,2.6,2.6,2.6s2.6-1.1,2.6-2.6l0,0l0,0
		C132,30,130.9,28.9,129.4,28.9z"/>
	<rect x="127.2" y="14" class="st0" width="4.4" height="13.3"/>
</g>
<path class="st0" d="M18.8,35.5c10.7,0,16.5-8.9,16.5-16.5c0-0.2,0-0.5,0-0.8c1.1-0.8,2.1-1.8,2.9-3c-1.1,0.5-2.2,0.8-3.3,0.9
	c1.2-0.7,2.1-1.9,2.5-3.2c-1.1,0.7-2.4,1.2-3.7,1.4c-2.2-2.3-5.9-2.5-8.2-0.3c-1.5,1.4-2.2,3.6-1.7,5.6c-4.7-0.2-9-2.4-12-6.1
	c-1.5,2.7-0.8,6,1.8,7.8c-0.9,0-1.8-0.3-2.6-0.7v0.1c0,2.8,2,5.1,4.7,5.7c-0.9,0.2-1.8,0.3-2.6,0.1c0.8,2.4,3,4,5.4,4
	c-2.1,1.6-4.6,2.5-7.2,2.5c-0.5,0-0.9,0-1.4-0.1C12.5,34.6,15.6,35.5,18.8,35.5"/>
<path class="st0" d="M158.4,13.5c-1.1,0-2,0.9-2,2v0.1v7.7c0,6.3,6.2,11.2,11.6,11.2c6.1,0,11.7-5.2,11.7-11.2v-7.7
	c0.1-1.1-0.8-2-1.9-2.1c-0.1,0-0.1,0-0.2,0H158.4z M163.3,19.8l4.7,4.4l4.7-4.4c2.1-0.9,3,1.5,2.1,2.2l-6.1,5.8
	c-0.5,0.2-1,0.2-1.5,0l-6.1-5.8C160.3,21.2,161.4,18.8,163.3,19.8L163.3,19.8z"/>
<path class="st0" d="M229.5,22.4c0-6.1-6.1-11.1-13.6-11.1s-13.6,5-13.6,11.1c0,5.5,4.8,10.1,11.4,10.9c0.5,0.1,1,0.3,1.2,0.7
	c0.2,0.3,0.1,0.9,0.1,1.2c0,0-0.2,0.9-0.2,1.2c-0.1,0.3-0.3,1.3,1.2,0.7s7.9-4.6,10.7-7.9l0,0C228.6,27,229.5,24.9,229.5,22.4z
	 M211.1,25.7c0,0.2-0.2,0.2-0.2,0.2h-3.8l0,0c-0.1,0-0.2,0-0.2-0.1l0,0l0,0c-0.1-0.1-0.1-0.1-0.1-0.2l0,0v-5.9
	c0-0.2,0.2-0.2,0.2-0.2h0.9c0.2,0,0.2,0.2,0.2,0.2v4.7h2.6c0.2,0,0.2,0.2,0.2,0.2L211.1,25.7L211.1,25.7z M213.4,25.7
	c0,0.2-0.2,0.2-0.2,0.2h-0.9c-0.2,0-0.2-0.2-0.2-0.2v-5.9c0-0.2,0.2-0.2,0.2-0.2h0.9c0.2,0,0.2,0.2,0.2,0.2V25.7z M220,25.7
	c0,0.2-0.2,0.2-0.2,0.2h-0.9h-0.1l0,0l0,0l0,0l0,0l0,0l0,0l0,0l0,0c0,0-0.1,0-0.1-0.1l-2.7-3.7v3.5c0,0.2-0.2,0.2-0.2,0.2h-0.9
	c-0.2,0-0.2-0.2-0.2-0.2v-5.9c0-0.2,0.2-0.2,0.2-0.2h0.9l0,0l0,0l0,0l0,0l0,0l0,0l0,0l0,0l0,0l0,0l0,0l0,0l0,0l0,0l0,0l0,0l0,0l0,0
	l0,0l2.7,3.7v-3.5c0-0.2,0.2-0.2,0.2-0.2h0.9c0.2,0,0.2,0.2,0.2,0.2v6H220z M225.3,20.7c0,0.2-0.2,0.2-0.2,0.2h-2.6v1h2.6
	c0.2,0,0.2,0.2,0.2,0.2V23c0,0.2-0.2,0.2-0.2,0.2h-2.6v1h2.6c0.2,0,0.2,0.2,0.2,0.2v0.9c0,0.2-0.2,0.2-0.2,0.2h-3.8l0,0
	c-0.1,0-0.2,0-0.2-0.1l0,0l0,0c-0.1-0.1-0.1-0.1-0.1-0.2l0,0v-5.9l0,0c0-0.1,0-0.2,0.1-0.2l0,0l0,0c0.1-0.1,0.1-0.1,0.2-0.1l0,0h3.8
	c0.2,0,0.2,0.2,0.2,0.2V20.7z"/>
<g>
	<path class="st0" d="M86,24.1c0-7.7-6.3-14-14-14s-14,6.3-14,14c0,7,5.1,12.8,11.8,13.8v-9.8h-3.6v-4h3.6V21c0-3.5,2.1-5.4,5.3-5.4
		c1.5,0,3.1,0.3,3.1,0.3v3.4h-1.8c-1.7,0-2.3,1.1-2.3,2.2v2.6H78l-0.6,4h-3.3v9.8C80.9,36.8,86,31.1,86,24.1z"/>
</g>
<g>
	<circle class="st0" cx="255.7" cy="32.3" r="3.2"/>
	<path class="st0" d="M252.5,12.5v4.2c10.4,0,18.8,8.4,18.8,18.8h4.2C275.5,22.8,265.2,12.5,252.5,12.5z M252.5,20.9V25
		c5.8,0,10.5,4.7,10.5,10.5h4.2C267.1,27.4,260.6,20.9,252.5,20.9z"/>
</g>
<path class="st0" d="M312.3,30.2l1.6,1.6c0.2,0.2,0.2,0.5,0,0.6l-1.2,1.2c-0.1,0.1-0.2,0.1-0.2,0.1h-1c0,0-0.1,0-0.2-0.1l-1.2-1.2
	c-0.2-0.2-0.2-0.5,0-0.6l1.6-1.6C311.8,30,312.1,30,312.3,30.2L312.3,30.2z M312.3,23.7l1.6,1.6c0.2,0.2,0.2,0.5,0,0.6l-4.5,4.4
	c-0.1,0.1-0.2,0.1-0.2,0.1h-1c0,0-0.1,0-0.2-0.1l-1.2-1.2c-0.2-0.2-0.2-0.5,0-0.6l4.9-4.8C311.9,23.5,312.1,23.5,312.3,23.7
	L312.3,23.7z M312.3,17.2l1.6,1.6c0.2,0.2,0.2,0.5,0,0.6l-7.7,7.7c-0.1,0.1-0.2,0.1-0.2,0.1h-1c0,0-0.1,0-0.2-0.1l-1.2-1.2
	c-0.2-0.2-0.2-0.5,0-0.6l8.1-8.1C311.9,17,312.1,17,312.3,17.2z M314.3,12.6c-1.3-1.3-3.3-1.3-4.6,0L299,23.3
	c-1.3,1.3-1.3,3.3,0,4.6l7.7,7.7c0.3,0.3,1.1,0.7,1.7,0.7h7.1c0.4,0,1.4-0.3,1.8-0.8l7.7-7.7c1.3-1.3,1.3-3.3,0-4.6L314.3,12.6
	L314.3,12.6z"/>
<g>
	<path class="st0" d="M370.7,33.4c-12.1,5.7-19.5,0.9-24.3-2c-0.3-0.2-0.8,0-0.4,0.5c1.6,1.9,6.8,6.6,13.6,6.6
		c6.8,0,10.9-3.7,11.4-4.4C371.6,33.6,371.2,33.2,370.7,33.4L370.7,33.4z M374.1,31.6c-0.3-0.4-2-0.5-3-0.4c-1,0.1-2.6,0.8-2.5,1.1
		c0.1,0.1,0.2,0.1,0.9,0c0.7-0.1,2.7-0.3,3.1,0.2c0.4,0.5-0.6,3.2-0.8,3.6c-0.2,0.4,0.1,0.5,0.4,0.2c0.3-0.3,1-1,1.4-2
		C374.1,33.3,374.3,31.9,374.1,31.6L374.1,31.6z"/>
	<path class="st1" d="M362.6,21.7c0,1.5,0,2.8-0.7,4.1c-0.6,1.1-1.6,1.8-2.7,1.8c-1.5,0-2.3-1.1-2.3-2.8c0-3.3,2.9-3.9,5.7-3.9V21.7
		z M366.5,31.1c-0.3,0.2-0.6,0.2-0.9,0.1c-1.3-1.1-1.5-1.6-2.2-2.6c-2.1,2.2-3.6,2.8-6.4,2.8c-3.2,0-5.8-2-5.8-6
		c0-3.1,1.7-5.3,4.1-6.3c2.1-0.9,5-1.1,7.3-1.3v-0.5c0-0.9,0.1-2-0.5-2.8c-0.5-0.7-1.4-1-2.2-1c-1.5,0-2.8,0.8-3.1,2.3
		c-0.1,0.3-0.3,0.7-0.7,0.7l-3.7-0.4c-0.3-0.1-0.7-0.3-0.6-0.8c0.9-4.5,5-5.9,8.6-5.9c1.9,0,4.3,0.5,5.8,1.9
		c1.9,1.8,1.7,4.1,1.7,6.6v6c0,1.8,0.7,2.6,1.5,3.6c0.2,0.3,0.3,0.8,0,1C368.7,29.3,367.3,30.5,366.5,31.1L366.5,31.1"/>
	<path class="st0" d="M370.7,33.4c-12.1,5.7-19.5,0.9-24.3-2c-0.3-0.2-0.8,0-0.4,0.5c1.6,1.9,6.8,6.6,13.6,6.6
		c6.8,0,10.9-3.7,11.4-4.4C371.6,33.6,371.2,33.2,370.7,33.4L370.7,33.4z M374.1,31.6c-0.3-0.4-2-0.5-3-0.4c-1,0.1-2.6,0.8-2.5,1.1
		c0.1,0.1,0.2,0.1,0.9,0c0.7-0.1,2.7-0.3,3.1,0.2c0.4,0.5-0.6,3.2-0.8,3.6c-0.2,0.4,0.1,0.5,0.4,0.2c0.3-0.3,1-1,1.4-2
		C374.1,33.3,374.3,31.9,374.1,31.6L374.1,31.6z"/>
	<path class="st1" d="M362.6,21.7c0,1.5,0,2.8-0.7,4.1c-0.6,1.1-1.6,1.8-2.7,1.8c-1.5,0-2.3-1.1-2.3-2.8c0-3.3,2.9-3.9,5.7-3.9V21.7
		z M366.5,31.1c-0.3,0.2-0.6,0.2-0.9,0.1c-1.3-1.1-1.5-1.6-2.2-2.6c-2.1,2.2-3.6,2.8-6.4,2.8c-3.2,0-5.8-2-5.8-6
		c0-3.1,1.7-5.3,4.1-6.3c2.1-0.9,5-1.1,7.3-1.3v-0.5c0-0.9,0.1-2-0.5-2.8c-0.5-0.7-1.4-1-2.2-1c-1.5,0-2.8,0.8-3.1,2.3
		c-0.1,0.3-0.3,0.7-0.7,0.7l-3.7-0.4c-0.3-0.1-0.7-0.3-0.6-0.8c0.9-4.5,5-5.9,8.6-5.9c1.9,0,4.3,0.5,5.8,1.9
		c1.9,1.8,1.7,4.1,1.7,6.6v6c0,1.8,0.7,2.6,1.5,3.6c0.2,0.3,0.3,0.8,0,1C368.7,29.3,367.3,30.5,366.5,31.1L366.5,31.1"/>
</g>
<path class="st0" d="M402.6,26.7c-0.2,1.3-1.2,7.3-1.4,9c0,0.1-0.1,0.2-0.2,0.2h-5c-0.5,0-0.9-0.4-0.8-0.9l4-25.1
	c0.1-0.6,0.7-1.1,1.3-1.1c10.3,0,11.1-0.2,13.8,0.8c4.1,1.6,4.4,5.4,3,9.5c-1.4,4.2-4.9,6-9.4,6.1C404.7,25.1,403,24.6,402.6,26.7
	L402.6,26.7z M419.1,17c-0.1-0.1-0.2-0.1-0.2,0.1c-0.1,0.8-0.3,1.5-0.6,2.3c-2.7,7.7-10.1,7-13.8,7c-0.4,0-0.7,0.2-0.7,0.6
	c-1.5,9.5-1.8,11.4-1.8,11.4c-0.1,0.5,0.2,0.9,0.7,0.9h4.3c0.6,0,1.1-0.4,1.2-1c0-0.4-0.1,0.4,1-6.2c0.3-1.5,1-1.3,2-1.3
	c4.8,0,8.5-1.9,9.6-7.6C421.2,20.9,421,18.4,419.1,17L419.1,17z"/>
</svg>
