<svg height="240" viewBox="0 0 960 240" width="960" xmlns="http://www.w3.org/2000/svg">

  <style>
  #logo {
    fill: #ffcc66;
  }
  @media (prefers-color-scheme: dark) {
    #logo {
      fill: #eebc66;
    }
  }
  </style>

  <g id="logo">
    <path d="m861.73 30.45c-9.4-20.05-14.1-30.08-21.73-30.08s-12.33 10-21.73 30.08l-82.27 175.38c-7.21 15.37-10.81 23-7.28 28.61s12 5.56 29 5.56h164.52c17 0 25.47 0 29-5.56s-.07-13.24-7.27-28.61zm-663.24 181.29c17.56 18.71 26.34 28.07 33.92 25.08s7.59-15.82 7.59-41.49v-171.24c0-11.31 0-17-3.51-20.48s-9.18-3.51-20.49-3.51h-178.24c-17 0-25.47 0-29 5.56s.06 13.24 7.24 28.61l82.27 175.38c9.4 20 14.1 30.08 21.73 30.08s12.33-10 21.73-30.08l3.24-6.91c6.81-14.52 10.22-21.78 16.5-22.78s11.77 4.85 22.74 16.55zm503.51-39.91c0 18-4.9 32.48-15 43.58-14.6 16.39-36.7 24.49-66.5 24.49h-74.5c-11.31 0-17 0-20.48-3.51s-3.52-9.17-3.52-20.48v-191.91c0-11.31 0-17 3.52-20.48s9.17-3.52 20.48-3.52h67.3q66.45 0 66.5 62.47c0 12.7-2.5 23.19-7.2 31.59-4.67 8.17-2.15 22.52 5.85 27.47a40.68 40.68 0 0 1 14 13.91c6.45 10.5 9.55 22.56 9.55 36.39zm-232-147.74c0-11.31 0-17-3.51-20.48s-9.18-3.51-20.49-3.51h-132c-11.31 0-17 0-20.48 3.51s-3.52 9.17-3.52 20.48v191.91c0 11.31 0 17 3.52 20.48s9.17 3.52 20.48 3.52h132c11.31 0 17 0 20.49-3.51s3.51-9.17 3.51-20.49v-12c0-11.3 0-17-3.51-20.47s-9.18-3.53-20.49-3.53h-21a30.17 30.17 0 0 1 -5.34-.23 12 12 0 0 1 -9.43-9.42 30.17 30.17 0 0 1 -.23-5.35 30.17 30.17 0 0 1 .23-5.34 12 12 0 0 1 9.43-9.42 30.17 30.17 0 0 1 5.34-.24h5c7.48 0 11.22 0 14-1.61a12 12 0 0 0 4.39-4.39c1.61-2.78 1.61-6.52 1.61-14v-20c0-7.47 0-11.21-1.61-14a12 12 0 0 0 -4.39-4.33c-2.78-1.61-6.52-1.61-14-1.61h-5a30.17 30.17 0 0 1 -5.34-.23 12 12 0 0 1 -9.43-9.42 30.17 30.17 0 0 1 -.23-5.34 30.17 30.17 0 0 1 .23-5.34 12 12 0 0 1 9.43-9.42 28.93 28.93 0 0 1 5.34-.24h21c11.31 0 17 0 20.49-3.51s3.51-9.17 3.51-20.48z" fill-rule="evenodd"/>
  </g>

</svg>
