<svg width="120" height="120" viewBox="0 0 120 120" fill="none" xmlns="http://www.w3.org/2000/svg">
<path d="M0 36C0 21.0011 0 13.5016 3.81966 8.2443C5.05325 6.5464 6.5464 5.05325 8.2443 3.81966C13.5016 0 21.0011 0 36 0H84C98.9989 0 106.498 0 111.756 3.81966C113.454 5.05325 114.947 6.5464 116.18 8.2443C120 13.5016 120 21.0011 120 36V84C120 98.9989 120 106.498 116.18 111.756C114.947 113.454 113.454 114.947 111.756 116.18C106.498 120 98.9989 120 84 120H36C21.0011 120 13.5016 120 8.2443 116.18C6.5464 114.947 5.05325 113.454 3.81966 111.756C0 106.498 0 98.9989 0 84V36Z" fill="#FF0000"/>
</svg>
